<?xml version="1.0" encoding="UTF-8"?>
<svg version="1.1" xmlns="http://www.w3.org/2000/svg" width="1165" height="263">
<path d="M0 0 C3.10982001 1.4401565 5.04705198 3.59293194 7.4296875 6.04296875 C8.33332031 6.96207031 9.23695313 7.88117187 10.16796875 8.828125 C12.28437174 11.05106239 14.30080486 13.34094044 16.29980469 15.66967773 C20.07690025 19.99524797 24.07046409 24.06096767 28.14453125 28.10546875 C28.91459503 28.87407227 29.68465881 29.64267578 30.47805786 30.43457031 C32.13725858 32.0899888 33.79761271 33.74425189 35.45901489 35.39746094 C38.09349068 38.01908261 40.72475075 40.64389453 43.35522461 43.26953125 C48.93973921 48.84266098 54.52814471 54.41188107 60.1171875 59.98046875 C66.59767774 66.43724131 73.07646279 72.89571136 79.55105591 79.35839844 C82.13411693 81.93501193 84.7201885 84.50857704 87.30639648 87.08203125 C88.90102797 88.67302769 90.49551781 90.26416612 92.08984375 91.85546875 C92.80173859 92.56219727 93.51363342 93.26892578 94.24710083 93.99707031 C98.19415695 97.94371276 101.94981514 101.99711722 105.59578514 106.22343636 C107.36185497 108.26302955 109.18983546 110.23105642 111.05786133 112.17749023 C112.08977348 113.25286293 112.08977348 113.25286293 113.14253235 114.34996033 C116.241826 117.548576 119.35480415 120.73346154 122.47680664 123.90991211 C124.11572315 125.58569486 125.74561221 127.27035298 127.36645508 128.96362305 C129.72676217 131.42741264 132.11536191 133.86038379 134.51171875 136.2890625 C135.58254448 137.42486 135.58254448 137.42486 136.67500305 138.58360291 C141.03349292 142.92616922 144.08667401 144.84801998 150.28315735 145.01039124 C151.2183873 145.00051682 152.15361725 144.9906424 153.1171875 144.98046875 C154.20505051 145.01059555 155.29291351 145.04072235 156.41374207 145.07176208 C159.54712242 145.15713672 162.67874462 145.20885156 165.8130703 145.24082947 C167.89517224 145.2622066 169.97713982 145.28918926 172.05915833 145.31750488 C177.22318581 145.38664406 182.38731114 145.44662779 187.55145264 145.50653076 C191.93529135 145.55770119 196.31905354 145.61256901 200.70278358 145.67234802 C202.74276497 145.69867174 204.78275497 145.719626 206.82279968 145.74035645 C208.07132217 145.75707397 209.31984467 145.7737915 210.60620117 145.79101562 C211.69744797 145.8035437 212.78869476 145.81607178 213.91300964 145.82897949 C217.36347305 145.9921128 220.70676317 146.44222244 224.1171875 146.98046875 C224.1171875 147.31046875 224.1171875 147.64046875 224.1171875 147.98046875 C223.31970093 148.09385086 222.52221436 148.20723297 221.70056152 148.3240509 C123.82942147 161.76323774 123.82942147 161.76323774 27.3671875 182.66796875 C25.94043701 183.04163574 25.94043701 183.04163574 24.48486328 183.42285156 C20.51245386 184.52531076 16.76207207 185.67399366 13.0287323 187.44822693 C1.96693243 192.61642199 -7.97739662 192.7679104 -20.03515625 192.56640625 C-22.03152681 192.55518772 -24.02791412 192.54666013 -26.02430725 192.54067993 C-31.22780589 192.51799049 -36.43026734 192.45924339 -41.63336182 192.39245605 C-46.96311419 192.33059969 -52.29303747 192.30357316 -57.62304688 192.2734375 C-68.04341944 192.20947707 -78.46302906 192.10734456 -88.8828125 191.98046875 C-62.17068761 165.26834386 11.99526819 158.25381521 47.26293945 151.7590332 C48.24012436 151.57887665 49.21730927 151.39872009 50.22410583 151.21310425 C52.06411368 150.87558431 53.90471861 150.54129842 55.74598694 150.21072388 C60.05532601 149.49883213 60.05532601 149.49883213 64.1171875 147.98046875 C57.9827402 138.22383792 51.82276173 128.48611925 45.5456543 118.82055664 C41.37426046 112.39208418 37.24431606 105.93742794 33.1171875 99.48046875 C28.63487329 92.4688934 24.14653389 85.46176605 19.6171875 78.48046875 C15.29123965 71.81046078 10.99272497 65.12299262 6.70483398 58.4284668 C5.64025454 56.76648026 4.57501734 55.1049151 3.50976562 53.44335938 C2.85427734 52.41919922 2.19878906 51.39503906 1.5234375 50.33984375 C0.64655273 48.97037598 0.64655273 48.97037598 -0.24804688 47.57324219 C-1.83049759 45.06344132 -3.36666839 42.53076579 -4.8828125 39.98046875 C-7.96274993 41.40418471 -10.51776277 43.10962998 -13.19921875 45.18359375 C-14.03582031 45.82683594 -14.87242187 46.47007813 -15.734375 47.1328125 C-16.62898437 47.82503906 -17.52359375 48.51726563 -18.4453125 49.23046875 C-25.37327777 54.55305724 -32.33137219 59.8225192 -39.3828125 64.98046875 C-46.10811841 69.90564829 -52.76335258 74.9139613 -59.3828125 79.98046875 C-66.00228532 85.04698607 -72.65790708 90.05473039 -79.3828125 94.98046875 C-87.07729499 100.61765904 -94.68030406 106.36688672 -102.2578125 112.16015625 C-108.07811158 116.60945155 -113.92353133 121.02239675 -119.79248047 125.40722656 C-124.38676809 128.84516024 -128.95283846 132.31866205 -133.51147461 135.80371094 C-141.40488474 141.83811635 -149.32456149 147.83210509 -157.3203125 153.73046875 C-158.09479736 154.30265137 -158.86928223 154.87483398 -159.66723633 155.46435547 C-163.67530725 158.4101261 -167.71773054 161.26095407 -171.8828125 163.98046875 C-170.26588064 159.8991769 -167.34000798 157.17444624 -164.2578125 154.16796875 C-163.71439209 153.63099365 -163.17097168 153.09401855 -162.61108398 152.54077148 C-159.20934564 149.20360714 -155.70572926 146.03877171 -152.07421875 142.953125 C-149.06185614 140.24146169 -146.2319224 137.36192274 -143.3828125 134.48046875 C-139.39504693 130.44748401 -135.36786342 126.5864441 -131.0390625 122.91796875 C-128.03666567 120.2201629 -125.22020433 117.35003056 -122.3828125 114.48046875 C-118.39504419 110.44748765 -114.36786345 106.58644413 -110.0390625 102.91796875 C-107.03666567 100.2201629 -104.22020433 97.35003056 -101.3828125 94.48046875 C-97.39504419 90.44748765 -93.36786345 86.58644413 -89.0390625 82.91796875 C-86.03666567 80.2201629 -83.22020433 77.35003056 -80.3828125 74.48046875 C-76.39504419 70.44748765 -72.36786345 66.58644413 -68.0390625 62.91796875 C-65.03666546 60.22016272 -62.22020668 57.35002837 -59.3828125 54.48046875 C-55.99275132 51.05202047 -52.63087268 47.65786155 -48.9453125 44.54296875 C-45.04011294 41.23474238 -41.48000082 37.61533382 -37.8828125 33.98046875 C-33.71634556 29.77036246 -29.52995848 25.70805665 -25.00390625 21.8828125 C-22.01134096 19.19887273 -19.20951151 16.33721346 -16.3828125 13.48046875 C-8.59633887 5.65492881 -8.59633887 5.65492881 -5.3203125 2.60546875 C-4.45212891 1.78949219 -4.45212891 1.78949219 -3.56640625 0.95703125 C-1.8828125 -0.01953125 -1.8828125 -0.01953125 0 0 Z " fill="#DABE78" transform="translate(180.8828125,15.01953125)"/>
<path d="M0 0 C3.72901814 -0.08736736 7.45777165 -0.14051482 11.1875 -0.1875 C12.24259766 -0.21263672 13.29769531 -0.23777344 14.38476562 -0.26367188 C15.91713867 -0.27817383 15.91713867 -0.27817383 17.48046875 -0.29296875 C18.41785889 -0.3086792 19.35524902 -0.32438965 20.32104492 -0.34057617 C24.35727998 0.17255131 27.00355361 1.93237887 29.75 4.875 C32.65470275 9.81299467 32.20683869 15.67126538 32.31640625 21.23828125 C32.33718735 22.11904831 32.35796844 22.99981537 32.37937927 23.90727234 C32.44453937 26.70893879 32.50360321 29.51069557 32.5625 32.3125 C32.60571715 34.21680606 32.64933244 36.12110312 32.69335938 38.02539062 C32.80018623 42.68350218 32.9015474 47.34170422 33 52 C33.556306 51.43481155 34.112612 50.86962311 34.68577576 50.28730774 C39.95587158 44.93673141 45.23576437 39.59610199 50.52665615 34.26609516 C53.2457708 31.52619438 55.96107547 28.78273769 58.66772461 26.03051758 C61.28480835 23.36965395 63.91182724 20.71896834 66.5457325 18.07475853 C67.54388159 17.06927535 68.53853181 16.06030507 69.52941704 15.04766273 C77.41906108 6.99190483 84.60728322 0.24597646 96.33203125 -0.09765625 C97.48058594 -0.08605469 98.62914062 -0.07445313 99.8125 -0.0625 C100.97394531 -0.05347656 102.13539063 -0.04445313 103.33203125 -0.03515625 C104.21246094 -0.02355469 105.09289062 -0.01195313 106 0 C106.042721 1.66611905 106.04063832 3.33382885 106 5 C104.07546418 6.92453582 100.6468858 6.72861789 98.03125 7.109375 C89.29695614 9.6756366 83.25751418 15.18325889 77.02734375 21.58203125 C76.21882462 22.39621017 75.41030548 23.2103891 74.57728577 24.04924011 C72.02106585 26.6276809 69.47918351 29.21973706 66.9375 31.8125 C65.19689567 33.57318761 63.45536795 35.33296287 61.71289062 37.09179688 C57.46452593 41.38403924 53.2278151 45.68752013 49 50 C49.94684957 51.10754532 50.89411537 52.21473481 51.84155273 53.32177734 C52.36901596 53.93838226 52.89647919 54.55498718 53.43992615 55.1902771 C60.1084038 62.92587032 67.17114408 70.2351757 74.43041992 77.41113281 C77.94125156 80.89610683 81.25504322 84.48636747 84.4765625 88.2421875 C92.70357063 97.73488918 103.46439678 107.16227004 116 110 C116 111.65 116 113.3 116 115 C109.84793364 118.07603318 99.03269598 116.72271374 92.4921875 115.1640625 C80.74744452 110.59495883 72.00047478 101.3080268 63.3125 92.5 C62.41466797 91.60152344 61.51683594 90.70304687 60.59179688 89.77734375 C56.83483284 85.99560852 53.12577088 82.21499282 49.66796875 78.15625 C44.39211971 72.17807814 38.63795716 66.63795716 33 61 C32.67 78.82 32.34 96.64 32 115 C26.72 115 21.44 115 16 115 C15.98786972 113.25138924 15.98786972 113.25138924 15.97549438 111.467453 C15.8978026 100.44839233 15.81000619 89.42945163 15.71247292 78.41054821 C15.66265806 72.74646105 15.61632727 67.08239122 15.578125 61.41821289 C15.54108443 55.94569539 15.4946748 50.47332826 15.44193649 45.00094032 C15.42349186 42.91953498 15.40834781 40.83809753 15.39665604 38.7566433 C16.00940329 23.58691351 16.00940329 23.58691351 13 9 C10.19371358 6.49136347 7.93072274 5.51616758 4.25 4.8125 C3.45078125 4.65394531 2.6515625 4.49539062 1.828125 4.33203125 C1.22484375 4.22246094 0.6215625 4.11289062 0 4 C0 2.68 0 1.36 0 0 Z " fill="#256DA6" transform="translate(739,29)"/>
<path d="M0 0 C2.11782167 0.02009411 4.23566173 0.03833973 6.35351562 0.0546875 C11.50696961 0.09845575 16.65952936 0.16732352 21.8125 0.25 C21.8125 1.9 21.8125 3.55 21.8125 5.25 C18.8425 5.91 15.8725 6.57 12.8125 7.25 C13.29460937 7.78109375 13.77671875 8.3121875 14.2734375 8.859375 C15.22089844 9.91898438 15.22089844 9.91898438 16.1875 11 C16.81398438 11.69609375 17.44046875 12.3921875 18.0859375 13.109375 C23.33210514 19.61367334 22.4446648 27.29262563 21.8125 35.25 C20.32217136 40.99962016 16.93297207 45.21040062 11.8125 48.25 C3.75191323 52.71600078 -5.12299557 53.00256832 -14.12670898 53.56713867 C-15.09294189 53.63006104 -16.0591748 53.6929834 -17.0546875 53.7578125 C-17.92206543 53.80566895 -18.78944336 53.85352539 -19.68310547 53.90283203 C-22.43117288 54.28377879 -24.66041467 55.12603308 -27.1875 56.25 C-27.1875 57.57 -27.1875 58.89 -27.1875 60.25 C-23.65580982 61.82909787 -20.72696547 62.53781632 -16.87109375 62.7421875 C-15.86498047 62.8050293 -14.85886719 62.86787109 -13.82226562 62.93261719 C-12.23961914 63.02784668 -12.23961914 63.02784668 -10.625 63.125 C1.58947938 64.01829775 12.63629378 65.29490719 21.8125 74.25 C27.50043855 81.09874234 27.6264174 88.76538422 27.07763672 97.27636719 C26.31607113 102.94533237 23.17551386 107.12895053 19.01953125 110.859375 C10.10570361 117.10824386 -0.72797722 117.7356934 -11.25 117.625 C-12.90999023 117.64240234 -12.90999023 117.64240234 -14.60351562 117.66015625 C-25.54260326 117.62138807 -35.47779599 115.41336679 -43.72265625 107.83984375 C-48.81666961 102.27058716 -49.6133628 95.92621552 -49.4375 88.671875 C-48.78198618 82.32158489 -45.55226004 77.71395914 -41.1875 73.25 C-35.45375387 69.25 -35.45375387 69.25 -32.1875 69.25 C-32.1875 68.59 -32.1875 67.93 -32.1875 67.25 C-33.6725 66.755 -33.6725 66.755 -35.1875 66.25 C-37.48843983 63.22244759 -37.59318196 59.95398461 -37.5234375 56.22265625 C-37.00153236 53.15798071 -35.33533168 51.39783168 -33.1875 49.25 C-33.64640625 48.86070313 -34.1053125 48.47140625 -34.578125 48.0703125 C-40.46206753 42.70554137 -43.61426626 37.23973916 -44.53125 29.2578125 C-44.78312249 21.00898836 -43.78264047 13.77060864 -38.1875 7.4375 C-27.28264677 -1.91760917 -13.47836835 -0.22276558 0 0 Z M-22 10 C-26.85152036 14.99013523 -28.17662137 20.47261519 -28.1875 27.25 C-27.62235609 34.06255293 -26.167781 38.50687524 -21.1875 43.25 C-17.80729391 45.61614426 -14.26858112 46.04929109 -10.1875 46.25 C-4.25584636 45.12064571 0.06078105 43.13860348 3.8125 38.25 C7.00518363 31.86463274 6.84293724 23.60914711 4.6875 16.875 C2.66482594 12.28400028 -0.439483 9.43910052 -5.07421875 7.43359375 C-11.35951612 5.47021009 -16.47744295 6.56374228 -22 10 Z M-30.14453125 79.42578125 C-33.08534909 84.56945889 -33.62726388 90.30701955 -32.5625 96.0625 C-31.02364997 101.5254176 -28.49590719 104.70506569 -23.5625 107.5 C-16.00118971 110.95098763 -7.97797562 111.01629173 -0.1875 108.25 C5.5139394 105.23791881 8.7687613 101.38121611 10.8125 95.25 C11.60126298 88.69421588 10.55832276 83.70749012 6.8125 78.25 C2.0410401 72.90018133 -5.26763697 71.68092534 -12.13671875 70.92578125 C-20.19088909 70.60713058 -25.07735196 72.91552178 -30.14453125 79.42578125 Z " fill="#266EA4" transform="translate(467.1875,59.75)"/>
<path d="M0 0 C0.76441406 -0.02449219 1.52882813 -0.04898438 2.31640625 -0.07421875 C9.07625882 -0.10864924 13.85730807 1.97351525 19.26171875 5.9453125 C29.21133053 15.91998628 32.10976722 29.08111944 32.5 42.875 C32.12539222 56.11657071 29.69915897 69.41932314 19.8125 78.8125 C13.47221206 84.42617454 6.57242217 85.89143931 -1.6875 85.8125 C-2.41775391 85.83248047 -3.14800781 85.85246094 -3.90039062 85.87304688 C-11.00879303 85.86686028 -14.54026589 84.04217604 -21.875 81.375 C-21.875 92.925 -21.875 104.475 -21.875 116.375 C-27.155 116.375 -32.435 116.375 -37.875 116.375 C-37.88530746 115.21734634 -37.89561493 114.05969269 -37.90623474 112.86695862 C-38.00416263 101.93561633 -38.10691421 91.0043285 -38.21433926 80.07307529 C-38.26940837 74.45376525 -38.32280195 68.83444986 -38.37231445 63.21508789 C-38.42019519 57.78801613 -38.47254502 52.3610039 -38.52794075 46.93400383 C-38.54825736 44.86768014 -38.56698734 42.80134019 -38.58407402 40.73498726 C-38.60835647 37.83181031 -38.63837608 34.92874339 -38.66967773 32.02563477 C-38.6754332 31.17902283 -38.68118866 30.33241089 -38.68711853 29.46014404 C-38.56404717 19.02885116 -38.56404717 19.02885116 -41.875 9.375 C-45.40248124 6.79722525 -49.65123123 6.79737688 -53.875 6.375 C-53.875 5.055 -53.875 3.735 -53.875 2.375 C-49.97930865 2.28767274 -46.08387018 2.23449815 -42.1875 2.1875 C-41.08470703 2.16236328 -39.98191406 2.13722656 -38.84570312 2.11132812 C-37.77900391 2.10166016 -36.71230469 2.09199219 -35.61328125 2.08203125 C-34.63399658 2.0663208 -33.65471191 2.05061035 -32.64575195 2.03442383 C-29.35498055 2.43891992 -27.50729259 3.38131611 -24.875 5.375 C-24.545 6.365 -24.215 7.355 -23.875 8.375 C-23.29492188 7.96507813 -22.71484375 7.55515625 -22.1171875 7.1328125 C-21.33601562 6.59398438 -20.55484375 6.05515625 -19.75 5.5 C-18.98429688 4.96632813 -18.21859375 4.43265625 -17.4296875 3.8828125 C-11.70837401 0.5060128 -6.48144234 0.01082044 0 0 Z M-19.875 14.375 C-22.13279693 17.7616954 -22.11986783 18.89190851 -22.10205078 22.85620117 C-22.10189972 23.97713669 -22.10174866 25.0980722 -22.10159302 26.25297546 C-22.09127045 27.46242325 -22.08094788 28.67187103 -22.0703125 29.91796875 C-22.0674826 31.15670242 -22.06465271 32.3954361 -22.06173706 33.67170715 C-22.05243186 36.96138087 -22.03446791 40.25085863 -22.0123291 43.54046631 C-21.9918527 46.89869794 -21.98273152 50.25695828 -21.97265625 53.61523438 C-21.95058271 60.20189973 -21.91709522 66.78843383 -21.875 73.375 C-20.28648604 74.02668837 -18.6963187 74.6743475 -17.10546875 75.3203125 C-15.77745239 75.86196045 -15.77745239 75.86196045 -14.42260742 76.41455078 C-8.39583439 78.6866471 -3.86104938 78.76941975 2.125 76.375 C8.35619993 72.51165604 10.93836858 67.28015185 13.125 60.375 C16.22535997 45.51782943 16.75443383 28.22775336 8.5859375 14.85546875 C5.38549666 10.80011562 2.34108485 8.25530414 -2.8359375 7.42578125 C-9.57484816 7.25795397 -14.94360755 9.88343444 -19.875 14.375 Z " fill="#246EA6" transform="translate(639.875,59.625)"/>
<path d="M0 0 C3.54150893 -0.08761663 7.08273633 -0.14059739 10.625 -0.1875 C11.62402344 -0.21263672 12.62304688 -0.23777344 13.65234375 -0.26367188 C23.53168099 -0.36181099 23.53168099 -0.36181099 28 3 C30.71838816 7.45737793 31.36179878 10.74449214 31.29296875 15.9296875 C31.28330078 17.21875 31.27363281 18.5078125 31.26367188 19.8359375 C31.23861188 21.18229786 31.21321712 22.52865203 31.1875 23.875 C31.17243504 25.24477705 31.15874982 26.61457002 31.14648438 27.984375 C31.11121379 31.32332358 31.06191896 34.66145675 31 38 C31.49628906 37.66226563 31.99257813 37.32453125 32.50390625 36.9765625 C41.89967644 30.80780256 50.99242504 30.12069667 62 31 C69.86412508 32.84159891 74.27380045 36.4948863 79.1875 42.8125 C83.71458929 50.77393289 83.26773911 58.9875314 83.1953125 67.90625 C83.19157544 69.24002875 83.18873175 70.57381028 83.18673706 71.90759277 C83.17915506 75.39282001 83.15955436 78.8778766 83.1373291 82.36303711 C83.11675256 85.92950127 83.10771027 89.4959934 83.09765625 93.0625 C83.07630243 100.0417432 83.04116561 107.0208458 83 114 C77.72 114 72.44 114 67 114 C66.970271 111.72355591 66.970271 111.72355591 66.93994141 109.40112305 C66.8634335 103.72974033 66.77478798 98.05859917 66.68261719 92.38745117 C66.64451317 89.94055985 66.60962913 87.49361605 66.578125 85.04663086 C66.53206872 81.51397034 66.47414338 77.98166534 66.4140625 74.44921875 C66.40251129 73.36855637 66.39096008 72.28789398 66.37905884 71.17448425 C66.23040069 57.11631104 66.23040069 57.11631104 60 45 C56.32157337 41.59072654 53.45589922 40.7010986 48.5625 40.5 C42.1733926 40.74306387 38.79162491 42.74924501 33.8427124 46.73931885 C31.39293443 49.74476174 31.48394613 51.57094892 31.45410156 55.42089844 C31.42452362 57.37246857 31.42452362 57.37246857 31.39434814 59.36346436 C31.3926851 60.77876747 31.39145417 62.19407115 31.390625 63.609375 C31.37564128 65.06099289 31.35891371 66.51259374 31.34051514 67.96417236 C31.29685002 71.77818591 31.27684471 75.59196951 31.26177979 79.40618896 C31.24220542 83.30087883 31.20023588 87.19532047 31.16015625 91.08984375 C31.08486314 98.72652713 31.03663731 106.36301541 31 114 C25.72 114 20.44 114 15 114 C14.99120064 112.144105 14.99120064 112.144105 14.98222351 110.25071716 C14.92497655 98.58286702 14.85220431 86.9152029 14.76428509 75.24754238 C14.71958389 69.24927047 14.68032698 63.25106645 14.65356445 57.25268555 C14.62752933 51.4624298 14.58712485 45.67243531 14.53681374 39.88234138 C14.52014655 37.67482824 14.50863136 35.46726991 14.50238609 33.25970268 C14.49274366 30.16431249 14.46468165 27.06959049 14.43237305 23.97436523 C14.43380814 23.06445831 14.43524323 22.15455139 14.4367218 21.21707153 C14.35619793 15.75144096 13.66925334 11.81330964 11 7 C8.33832683 5.53282779 8.33832683 5.53282779 5.3125 5.0625 C4.31863281 4.84722656 3.32476563 4.63195313 2.30078125 4.41015625 C1.54152344 4.27480469 0.78226563 4.13945313 0 4 C0 2.68 0 1.36 0 0 Z " fill="#246EA5" transform="translate(851,29)"/>
<path d="M0 0 C10.45738765 -0.09275265 20.91467715 -0.1637918 31.37239265 -0.20724869 C36.22855299 -0.22810775 41.08443152 -0.2563947 45.94042969 -0.30175781 C50.62831256 -0.34527551 55.31592468 -0.36914976 60.00399399 -0.37950897 C61.79095598 -0.38688971 63.57790344 -0.40130271 65.36474991 -0.42292023 C67.87125718 -0.45203345 70.37665115 -0.45595277 72.88330078 -0.45410156 C73.98705803 -0.47567322 73.98705803 -0.47567322 75.1131134 -0.49768066 C80.20451688 -0.45709483 83.07982556 0.79605634 87 4 C89.75583362 8.36996474 89.22753394 13.31594234 89.125 18.3125 C89.11597656 19.14845703 89.10695313 19.98441406 89.09765625 20.84570312 C89.07420989 22.89725969 89.03834266 24.94866777 89 27 C87.35 26.67 85.7 26.34 84 26 C83.91363281 25.41992188 83.82726562 24.83984375 83.73828125 24.2421875 C82.68952527 18.4114891 81.31318155 15.11256846 77 11 C71.03184503 7.70180909 63.77303827 7.84611719 57.09765625 7.68359375 C56.45598511 7.66494263 55.81431396 7.6462915 55.15319824 7.6270752 C52.7897525 7.55953219 50.42611315 7.49890596 48.0625 7.4375 C40.1115625 7.2209375 40.1115625 7.2209375 32 7 C32 21.85 32 36.7 32 52 C47.18 52 62.36 52 78 52 C78 54.31 78 56.62 78 59 C62.82 59 47.64 59 32 59 C32 74.84 32 90.68 32 107 C39.858125 106.814375 39.858125 106.814375 47.875 106.625 C50.32268799 106.57400146 50.32268799 106.57400146 52.81982422 106.52197266 C68.33896703 106.46262286 68.33896703 106.46262286 82 100 C85.28333654 96.31477701 87.88178119 92.45522079 90 88 C91.65 88 93.3 88 95 88 C89.69735264 109.13024629 89.69735264 109.13024629 82 114 C78.24679519 114.9993529 74.70523858 115.12154294 70.83276367 115.11352539 C69.61187546 115.11344986 68.39098724 115.11337433 67.13310242 115.11329651 C65.82460831 115.10813522 64.5161142 115.10297394 63.16796875 115.09765625 C61.80748039 115.09578961 60.44699135 115.09436687 59.08650208 115.09336853 C55.51744713 115.08956275 51.94843331 115.07974914 48.37939453 115.06866455 C44.73275305 115.05840863 41.08610489 115.05386197 37.43945312 115.04882812 C30.29295199 115.03812503 23.14647869 115.02107204 16 115 C15.98786972 113.25138924 15.98786972 113.25138924 15.97549438 111.467453 C15.8978026 100.44839233 15.81000619 89.42945163 15.71247292 78.41054821 C15.66265806 72.74646105 15.61632727 67.08239122 15.578125 61.41821289 C15.54108443 55.94569539 15.4946748 50.47332826 15.44193649 45.00094032 C15.42349186 42.91953498 15.40834781 40.83809753 15.39665604 38.7566433 C16.46126693 22.18954855 16.46126693 22.18954855 11.58242798 7.27555847 C9.42616538 5.53744523 7.52495667 5.27044723 4.8125 4.8125 C3.91144531 4.65394531 3.01039063 4.49539062 2.08203125 4.33203125 C1.39496094 4.22246094 0.70789063 4.11289062 0 4 C0 2.68 0 1.36 0 0 Z " fill="#246EA6" transform="translate(315,29)"/>
<path d="M0 0 C5.88342844 3.49666198 9.36853862 8.40872475 11.70254517 14.79449463 C13.07865373 20.40027711 12.70061657 26.21638468 12.6328125 31.953125 C12.62720762 33.35416202 12.62294174 34.75520497 12.61994934 36.15625 C12.60857056 39.81911854 12.57916493 43.48162234 12.5458374 47.14434814 C12.51498491 50.89175485 12.50141179 54.63922127 12.48632812 58.38671875 C12.45428715 65.7215386 12.40157782 73.05598394 12.33984375 80.390625 C7.05984375 80.390625 1.77984375 80.390625 -3.66015625 80.390625 C-3.66950195 78.68600098 -3.67884766 76.98137695 -3.68847656 75.22509766 C-3.72417317 69.55717465 -3.77807713 63.88961469 -3.84405899 58.22196388 C-3.88336398 54.78972241 -3.91563444 51.35773095 -3.93115234 47.92529297 C-3.94936463 43.96809809 -3.99938999 40.01159563 -4.05078125 36.0546875 C-4.05200989 34.83762115 -4.05323853 33.62055481 -4.05450439 32.36660767 C-4.19644755 24.01320217 -5.17738735 16.37093232 -10.84765625 9.890625 C-16.34537408 6.95850882 -21.25185785 5.6439167 -27.34765625 7.453125 C-29.50095026 8.14079682 -29.50095026 8.14079682 -31.66015625 9.390625 C-32.67972412 9.93283691 -33.69929199 10.47504883 -34.74975586 11.03369141 C-37.14965734 13.08414844 -37.6331008 14.2471201 -38.22654724 17.39482117 C-38.45378828 21.37952137 -38.49216226 25.32709475 -38.46484375 29.31640625 C-38.47609878 30.78901845 -38.48998158 32.26161271 -38.50637817 33.73417664 C-38.54238331 37.59935204 -38.5427942 41.46373596 -38.53570557 45.32904053 C-38.53479198 49.27744666 -38.5676606 53.22555723 -38.59765625 57.17382812 C-38.65148771 64.91293575 -38.66458035 72.65129124 -38.66015625 80.390625 C-43.94015625 80.390625 -49.22015625 80.390625 -54.66015625 80.390625 C-54.69774048 77.68951538 -54.69774048 77.68951538 -54.73608398 74.93383789 C-54.82030311 68.95473445 -54.90855382 62.97570164 -54.99949551 56.99669743 C-55.05443659 53.37502385 -55.10780709 49.7533419 -55.1574707 46.1315918 C-55.20554359 42.63020468 -55.25789558 39.12890433 -55.313097 35.6276226 C-55.34310967 33.65536013 -55.36879894 31.68303337 -55.39439392 29.71070862 C-55.110041 17.63306023 -55.110041 17.63306023 -58.66015625 6.390625 C-62.18763749 3.81285025 -66.43638748 3.81300188 -70.66015625 3.390625 C-70.66015625 2.070625 -70.66015625 0.750625 -70.66015625 -0.609375 C-66.7644649 -0.69670226 -62.86902643 -0.74987685 -58.97265625 -0.796875 C-57.86986328 -0.82201172 -56.76707031 -0.84714844 -55.63085938 -0.87304688 C-54.56416016 -0.88271484 -53.49746094 -0.89238281 -52.3984375 -0.90234375 C-51.41915283 -0.9180542 -50.43986816 -0.93376465 -49.4309082 -0.94995117 C-46.18286229 -0.55070683 -44.34721536 0.57175058 -41.66015625 2.390625 C-38.88974138 3.55083788 -38.02849144 3.53376948 -35.1875 2.4296875 C-34.33285156 1.96304688 -33.47820312 1.49640625 -32.59765625 1.015625 C-22.76842913 -4.27589877 -10.33723323 -4.4146981 0 0 Z " fill="#266DA5" transform="translate(1097.66015625,62.609375)"/>
<path d="M0 0 C0.99064453 -0.02900391 1.98128906 -0.05800781 3.00195312 -0.08789062 C10.54071044 -0.15215544 17.49218191 0.99255346 23.61547852 5.69799805 C30.9440923 13.22465172 32.26817053 23.93695121 32.26568604 33.97247314 C32.24504089 35.24483826 32.22439575 36.51720337 32.203125 37.828125 C32.1956415 39.17860058 32.18995858 40.5290872 32.18597412 41.87957764 C32.17088294 45.39128939 32.13175052 48.90231288 32.0871582 52.41375732 C32.04584282 56.01402482 32.02788668 59.61440626 32.0078125 63.21484375 C31.96523472 70.24767313 31.8971914 77.28004105 31.8125 84.3125 C30.35839313 84.35388003 28.90394969 84.3835607 27.44946289 84.40820312 C26.63957413 84.42596802 25.82968536 84.44373291 24.99525452 84.46203613 C22.8125 84.3125 22.8125 84.3125 20.62109375 82.78125 C20.16863281 82.1315625 19.71617187 81.481875 19.25 80.8125 C18.77433594 80.1628125 18.29867187 79.513125 17.80859375 78.84375 C17.31552734 78.08578125 17.31552734 78.08578125 16.8125 77.3125 C16.24402344 77.72242188 15.67554688 78.13234375 15.08984375 78.5546875 C14.31769531 79.09351563 13.54554688 79.63234375 12.75 80.1875 C11.99589844 80.72117187 11.24179687 81.25484375 10.46484375 81.8046875 C2.37256443 86.40501123 -7.69296216 86.51819423 -16.69140625 84.84765625 C-22.67401596 82.86906321 -27.60705691 79.36149641 -30.51171875 73.7578125 C-33.71309883 65.64764963 -34.50312622 58.60156555 -31.1875 50.3125 C-26.89807447 43.11183982 -20.04554543 40.02124768 -12.21557617 37.73730469 C-6.15067394 36.20537482 -0.35457547 36.07478673 5.875 36.1875 C7.31649414 36.20103516 7.31649414 36.20103516 8.78710938 36.21484375 C11.12917805 36.23814792 13.47069792 36.27085942 15.8125 36.3125 C14.98440623 27.94439455 14.15491349 20.69460293 9.8125 13.3125 C9.8125 12.6525 9.8125 11.9925 9.8125 11.3125 C3.26324792 8.89242147 -2.31928329 7.4237404 -9.1875 9.3125 C-15.19949913 12.08726883 -17.42052979 16.58266788 -20.1875 22.3125 C-22.8275 22.3125 -25.4675 22.3125 -28.1875 22.3125 C-28.52071563 17.1106338 -28.79897189 12.71378975 -26.6875 7.875 C-19.26220161 0.26406915 -10.05361193 0.09623751 0 0 Z M-12.5625 51.625 C-14.94144825 55.55941442 -16.58647013 58.89374358 -15.8125 63.5859375 C-14.34396406 68.60899793 -12.53652963 72.19254396 -8.1875 75.3125 C-2.49022349 77.54000661 2.10433775 77.78962702 7.8125 75.3125 C11.12702367 73.06717751 13.57570113 70.6676983 15.8125 67.3125 C16.08849951 64.69648445 16.08849951 64.69648445 16.0078125 61.76953125 C15.99814453 60.15981445 15.99814453 60.15981445 15.98828125 58.51757812 C15.97152344 57.39802734 15.95476563 56.27847656 15.9375 55.125 C15.92847656 53.99384766 15.91945313 52.86269531 15.91015625 51.69726562 C15.88656862 48.90213172 15.853653 46.10742155 15.8125 43.3125 C5.62019202 43.13103458 -4.98240639 44.24438254 -12.5625 51.625 Z " fill="#256EA5" transform="translate(984.1875,59.6875)"/>
<path d="M0 0 C1.52604017 0.00503269 3.05208198 0.00959242 4.578125 0.01367188 C8.26045154 0.02451981 11.94271469 0.04168346 15.625 0.0625 C15.295 0.7225 14.965 1.3825 14.625 2.0625 C12.437076 2.68637426 10.21618812 3.19509762 7.98828125 3.65625 C6.54935715 3.96164129 5.11047576 4.26723384 3.67163086 4.57299805 C2.51822708 4.81341324 2.51822708 4.81341324 1.34152222 5.0586853 C-25.59484408 10.70378173 -52.1239168 17.76830748 -78.48138428 25.67071533 C-80.33111919 26.22476723 -82.18175444 26.77582187 -84.03326416 27.32391357 C-92.89580592 29.95233095 -101.63981475 32.58100888 -110.09765625 36.3359375 C-136.83074669 47.81304653 -165.84267469 45.08648726 -194.375 44.0625 C-191.41023027 41.76774329 -188.79589748 40.28197286 -185.2734375 38.96875 C-184.24452393 38.58396484 -183.21561035 38.19917969 -182.15551758 37.80273438 C-180.46978638 37.18881836 -180.46978638 37.18881836 -178.75 36.5625 C-177.55850342 36.12744141 -176.36700684 35.69238281 -175.1394043 35.24414062 C-119.08837966 14.93113651 -59.96904652 -0.34957759 0 0 Z " fill="#D8BD78" transform="translate(194.375,162.9375)"/>
<path d="M0 0 C3.16648655 -0.08820927 6.33265092 -0.1407905 9.5 -0.1875 C10.386875 -0.21263672 11.27375 -0.23777344 12.1875 -0.26367188 C18.8963158 -0.33766617 24.27798892 0.22281109 29.76098633 4.31396484 C36.68701819 11.09021821 39.64697198 21.13713769 43.1875 29.9375 C43.89110031 31.65620469 44.59616792 33.37430945 45.30273438 35.09179688 C46.30276224 37.52306264 47.30085237 39.95486365 48.28691101 42.39183044 C50.41501479 47.64552924 52.66901648 52.83318576 55 58 C55.37251137 56.96976463 55.37251137 56.96976463 55.75254822 55.91871643 C58.08930492 49.45762307 60.42874038 42.99750545 62.77121639 36.53848362 C63.97551428 33.21751781 65.17875987 29.89617847 66.37963867 26.57397461 C67.75911509 22.75782657 69.14309834 18.94332703 70.52734375 15.12890625 C70.95965805 13.93100967 71.39197235 12.7331131 71.83738708 11.49891663 C72.23772659 10.3978508 72.6380661 9.29678497 73.05053711 8.16235352 C73.40361435 7.18750504 73.75669159 6.21265656 74.12046814 5.20826721 C75 3 75 3 76 2 C79.33327842 1.8575522 82.66453893 1.95777897 86 2 C81.27214835 16.56150313 76.08857277 30.94178398 70.8125 45.3125 C70.18379501 47.0267215 70.18379501 47.0267215 69.54238892 48.77557373 C67.06486347 55.52898012 64.58094761 62.28000963 62.09338379 69.02972412 C61.10733098 71.70842569 60.1245214 74.38828026 59.14355469 77.06884766 C57.6706447 81.0922586 56.18149295 85.10936985 54.6875 89.125 C54.28700439 90.22239502 53.88650879 91.31979004 53.47387695 92.45043945 C49.57924267 102.8077351 45.45541475 112.07231757 35 117 C31.35452585 117.97920503 27.95151066 118.10784953 24.1875 118.0625 C22.72376953 118.04896484 22.72376953 118.04896484 21.23046875 118.03515625 C20.49441406 118.02355469 19.75835938 118.01195312 19 118 C19 116.02 19 114.04 19 112 C19.72445312 111.82984375 20.44890625 111.6596875 21.1953125 111.484375 C22.16210938 111.24203125 23.12890625 110.9996875 24.125 110.75 C25.07632813 110.51796875 26.02765625 110.2859375 27.0078125 110.046875 C32.023363 108.2920871 35.16223525 106.31260469 38.046875 101.79296875 C38.60890625 100.60316406 39.1709375 99.41335937 39.75 98.1875 C40.60851562 96.41439453 40.60851562 96.41439453 41.484375 94.60546875 C44.69958987 87.54048181 44.69958987 87.54048181 43.96459961 80.1171875 C43.38190573 78.69417674 42.77633356 77.28039265 42.15234375 75.875 C41.82928757 75.10243362 41.50623138 74.32986725 41.17338562 73.53388977 C40.11420722 71.01384827 39.0262724 68.50737932 37.9375 66 C37.19971509 64.26018226 36.46389202 62.51953136 35.72998047 60.77807617 C34.23377981 57.23591865 32.72643394 53.69884236 31.20947266 50.16552734 C29.14372131 45.34836383 27.11672846 40.5159112 25.10546875 35.67578125 C24.50989251 34.24412169 23.914272 32.81248055 23.31860352 31.38085938 C22.89479904 30.36221802 22.89479904 30.36221802 22.46243286 29.32299805 C21.13935466 26.14656892 19.80997681 22.97289011 18.4765625 19.80078125 C18.04424316 18.77122314 17.61192383 17.74166504 17.16650391 16.6809082 C15.45666515 12.14913214 15.45666515 12.14913214 12.203125 8.8515625 C9.74421506 7.90113277 7.28238591 7.10805908 4.75 6.375 C3.41195313 5.98441406 3.41195313 5.98441406 2.046875 5.5859375 C1.37140625 5.39257812 0.6959375 5.19921875 0 5 C0 3.35 0 1.7 0 0 Z " fill="#266DA4" transform="translate(496,60)"/>
<path d="M0 0 C0 8.58 0 17.16 0 26 C6.93 26 13.86 26 21 26 C21 28.31 21 30.62 21 33 C14.07 33 7.14 33 0 33 C0.09388703 40.52584715 0.20005954 48.05138594 0.31738281 55.5769043 C0.35555308 58.13447382 0.39042633 60.69209485 0.421875 63.24975586 C0.46778545 66.93622177 0.52573723 70.6223368 0.5859375 74.30859375 C0.59748871 75.44332626 0.60903992 76.57805878 0.62094116 77.74717712 C0.65994566 88.6645915 0.65994566 88.6645915 4.75 98.5 C8.24718781 100.83145854 11.08482781 101.30642755 15.24609375 100.640625 C17.51585109 100.14865789 19.75547529 99.59581929 22 99 C23.33306343 98.6655889 24.66631244 98.33191319 26 98 C26.33 99.65 26.66 101.3 27 103 C17.68638683 109.65258084 8.12854979 110.30546449 -3 109 C-7.97340059 107.45271982 -10.73329248 104.8094592 -13.4375 100.4375 C-15.58637462 95.70997585 -16.12443326 92.23023288 -16.11352539 87.03808594 C-16.11344986 85.83714294 -16.11337433 84.63619995 -16.11329651 83.39886475 C-16.10813522 82.10708313 -16.10297394 80.81530151 -16.09765625 79.484375 C-16.09579017 78.14487765 -16.09436716 76.80537962 -16.09336853 75.46588135 C-16.08955835 71.94777528 -16.07974091 68.42971079 -16.06866455 64.91162109 C-16.05841817 61.31869061 -16.053864 57.72575339 -16.04882812 54.1328125 C-16.03811725 47.08852308 -16.02053262 40.04426863 -16 33 C-19.96 33 -23.92 33 -28 33 C-28 30.69 -28 28.38 -28 26 C-24.04 26 -20.08 26 -16 26 C-16.0928125 24.87722656 -16.185625 23.75445312 -16.28125 22.59765625 C-17.07086918 8.99039186 -17.07086918 8.99039186 -12.5 3.4375 C-8.26752111 -1.00492328 -7.01754805 0 0 0 Z " fill="#256DA5" transform="translate(710,36)"/>
<path d="M0 0 C0.33 0 0.66 0 1 0 C1 14.85 1 29.7 1 45 C16.18 45 31.36 45 47 45 C47 47.31 47 49.62 47 52 C31.82 52 16.64 52 1 52 C1 67.84 1 83.68 1 100 C13.87 99.67 26.74 99.34 40 99 C40 99.66 40 100.32 40 101 C26.8 101 13.6 101 0 101 C0 84.5 0 68 0 51 C14.85 51 29.7 51 45 51 C45 49.68 45 48.36 45 47 C43.06181396 47.00785522 43.06181396 47.00785522 41.08447266 47.01586914 C36.30241587 47.03393367 31.52036211 47.04543736 26.73828125 47.05493164 C24.66633599 47.05996852 22.5943943 47.06679825 20.52246094 47.07543945 C17.54881918 47.08753321 14.57522431 47.09323467 11.6015625 47.09765625 C10.67131256 47.10281754 9.74106262 47.10797882 8.78262329 47.11329651 C7.92188202 47.11337204 7.06114075 47.11344757 6.17431641 47.11352539 C5.41486725 47.115746 4.65541809 47.11796661 3.87295532 47.12025452 C2 47 2 47 0 46 C0 30.82 0 15.64 0 0 Z " fill="#356A92" transform="translate(346,36)"/>
<path d="M0 0 C0 3.68006603 -0.73008037 4.18216873 -3 7 C-3.81269297 8.20820355 -4.62517862 9.41654658 -5.4375 10.625 C-7.37956992 13.37431585 -8.85112838 14.69701864 -12 16 C-12.66 16.99 -13.32 17.98 -14 19 C-13.16666667 21.16666667 -13.16666667 21.16666667 -11 22 C-11.69838989 22.51046875 -11.69838989 22.51046875 -12.41088867 23.03125 C-25.39408096 32.53214829 -38.23172335 42.2124575 -51 52 C-51 49 -51 49 -48.4375 46.109375 C-47.29991613 44.98120376 -46.15351986 43.86187199 -45 42.75 C-44.40058594 42.16154297 -43.80117188 41.57308594 -43.18359375 40.96679688 C-39.61565748 37.48748105 -35.95827227 34.15955277 -32.15625 30.9375 C-28.55145215 27.69840628 -25.19255024 24.21183856 -21.78613281 20.76660156 C-18.2894869 17.24551782 -14.70741973 13.91046075 -10.921875 10.69921875 C-7.10171857 7.32164142 -3.56685644 3.64116595 0 0 Z " fill="#DDCB9B" transform="translate(61,127)"/>
<path d="M0 0 C0.66 1.32 1.32 2.64 2 4 C0.68 4.33 -0.64 4.66 -2 5 C-2 5.99 -2 6.98 -2 8 C-2.99 8.495 -2.99 8.495 -4 9 C-4 10.65 -4 12.3 -4 14 C-3.34 14 -2.68 14 -2 14 C-2 14.99 -2 15.98 -2 17 C-3.40527344 18.39453125 -3.40527344 18.39453125 -5.359375 19.8125 C-6.06320313 20.33070313 -6.76703125 20.84890625 -7.4921875 21.3828125 C-8.23726562 21.91648438 -8.98234375 22.45015625 -9.75 23 C-10.47960937 23.53367188 -11.20921875 24.06734375 -11.9609375 24.6171875 C-13.3297921 25.61769577 -14.70156629 26.6142304 -16.07714844 27.60546875 C-17.4397775 28.59370354 -18.76870886 29.62917425 -20.07128906 30.6953125 C-22 32 -22 32 -24.75 31.6875 C-25.4925 31.460625 -26.235 31.23375 -27 31 C-25.56970872 27.54346273 -23.95958832 26.19855132 -21 24 C-19.28135136 22.02355406 -17.62732966 20.04711853 -16 18 C-14.948125 16.7315625 -14.948125 16.7315625 -13.875 15.4375 C-11.97195582 13.08788211 -11.97195582 13.08788211 -10.67578125 10.6171875 C-8.84654458 7.76033769 -6.88466452 5.88688705 -4.3125 3.6875 C-3.50425781 2.99011719 -2.69601563 2.29273437 -1.86328125 1.57421875 C-1.24839844 1.05472656 -0.63351563 0.53523438 0 0 Z " fill="#D3BD80" transform="translate(73,116)"/>
<path d="M0 0 C10.47469199 -0.06952543 20.94932904 -0.12282425 31.42420483 -0.15543652 C36.28817587 -0.17108917 41.15198899 -0.1923202 46.01586914 -0.22631836 C50.71021895 -0.25892598 55.4044169 -0.27685603 60.09887123 -0.28463173 C61.88943179 -0.29017271 63.67998409 -0.30099291 65.47047997 -0.31719017 C67.97944443 -0.33898321 70.48778221 -0.34196616 72.99682617 -0.34057617 C74.10597633 -0.35675491 74.10597633 -0.35675491 75.23753357 -0.3732605 C79.67490504 -0.34667833 82.42098083 0.35356466 86 3 C85.34 3.33 84.68 3.66 84 4 C83.01 3.505 83.01 3.505 82 3 C79.81525817 2.87913832 77.62687 2.8225238 75.43896484 2.79467773 C74.42903221 2.77982834 74.42903221 2.77982834 73.3986969 2.76467896 C71.16947974 2.73304885 68.94024126 2.70830066 66.7109375 2.68359375 C65.16679322 2.66302552 63.62265459 2.64202908 62.07852173 2.62062073 C58.01135833 2.56538651 53.94414401 2.51598322 49.87689209 2.46777344 C45.72777771 2.41756825 41.57873741 2.36187707 37.4296875 2.30664062 C29.28652095 2.19904254 21.14329248 2.09760126 13 2 C13.33 4.31 13.66 6.62 14 9 C13.175 8.360625 12.35 7.72125 11.5 7.0625 C7.76808594 4.53586919 4.44276697 4.30639772 0 4 C0 2.68 0 1.36 0 0 Z " fill="#326994" transform="translate(315,29)"/>
<path d="M0 0 C0.66 0 1.32 0 2 0 C2 33.33 2 66.66 2 101 C8.435 100.505 8.435 100.505 15 100 C15 79.21 15 58.42 15 37 C15.99 37.33 16.98 37.66 18 38 C17.67 59.45 17.34 80.9 17 103 C11.72 103 6.44 103 1 103 C0.67 69.01 0.34 35.02 0 0 Z " fill="#306B96" transform="translate(865,40)"/>
<path d="M0 0 C0 0.33 0 0.66 0 1 C-0.73517853 1.12448517 -1.47035706 1.24897034 -2.22781372 1.37722778 C-9.31240916 2.57766346 -16.39623529 3.7825142 -23.47932625 4.99179268 C-27.11686027 5.61267429 -30.75462618 6.23210546 -34.39306641 6.84765625 C-51.27620252 9.7050941 -68.10581891 12.72202744 -84.88040161 16.16531372 C-86.05279388 16.40579437 -87.22518616 16.64627502 -88.43310547 16.89404297 C-89.463862 17.10801727 -90.49461853 17.32199158 -91.55661011 17.54244995 C-94 18 -94 18 -96 18 C-96 17.34 -96 16.68 -96 16 C-91.60158692 14.37953202 -87.23877824 13.37625534 -82.6484375 12.5078125 C-80.89889023 12.17235358 -79.15367531 11.81334833 -77.4140625 11.4296875 C-72.14672086 10.27897594 -67.39170194 9.80030734 -62 10 C-62 9.34 -62 8.68 -62 8 C-57.33874632 7.32221566 -52.67375695 6.70921962 -48 6.125 C-39.36915 4.98104955 -30.83087364 3.40804801 -22.36328125 1.36328125 C-14.92787784 -0.36959789 -7.59226191 -0.18221429 0 0 Z " fill="#EDDEAC" transform="translate(330,173)"/>
<path d="M0 0 C4.81230553 4.01544208 9.35818939 8.20983974 13.78125 12.6484375 C14.39842896 13.26465973 15.01560791 13.88088196 15.65148926 14.51577759 C16.94678485 15.81039748 18.24083779 17.10626177 19.53369141 18.40332031 C21.4914052 20.36638172 23.45438971 22.32405738 25.41796875 24.28125 C30.84138486 29.70203332 36.20398307 35.10036415 41.17041016 40.94775391 C45.6881957 46.01534202 50.61936915 50.71952745 55.4375 55.5 C56.5620833 56.61955632 57.68643405 57.73934629 58.81054688 58.859375 C61.53769344 61.57561534 64.26795907 64.28868292 67 67 C65.515 67.495 65.515 67.495 64 68 C62.66666667 66.66666667 61.33333333 65.33333333 60 64 C58.63875 62.700625 58.63875 62.700625 57.25 61.375 C55 59 55 59 55 57 C53.68 56.67 52.36 56.34 51 56 C50.8453125 55.0409375 50.8453125 55.0409375 50.6875 54.0625 C50.460625 53.381875 50.23375 52.70125 50 52 C49.01 51.67 48.02 51.34 47 51 C45.31267723 49.01739574 43.64633943 47.0167658 42 45 C41.01 44.34 40.02 43.68 39 43 C39 42.34 39 41.68 39 41 C38.401875 40.95875 37.80375 40.9175 37.1875 40.875 C35 40 35 40 33.625 37.1875 C31.64455438 33.30277975 29.62113692 32.36766645 26 30 C19 22.97188755 19 22.97188755 19 20 C18.443125 19.95875 17.88625 19.9175 17.3125 19.875 C14.44696396 18.79074312 13.26671129 17.06027433 11.42578125 14.68359375 C9.87818577 12.85615909 8.2187944 11.40049727 6.375 9.875 C3.8626784 7.77866193 1.67501628 5.85738071 0 3 C0 2.01 0 1.02 0 0 Z " fill="#EEE2AF" transform="translate(245,80)"/>
<path d="M0 0 C2.475 0.495 2.475 0.495 5 1 C5.92857784 3.78573353 6.1237216 5.43479114 6.12025452 8.30900574 C6.12162918 9.18820175 6.12300385 10.06739777 6.12442017 10.97323608 C6.12082489 11.93492706 6.11722961 12.89661804 6.11352539 13.88745117 C6.11367142 14.90226059 6.11381744 15.91707001 6.1139679 16.96263123 C6.11327026 20.32276535 6.10548478 23.68284429 6.09765625 27.04296875 C6.09579154 29.37038645 6.09436789 31.69780454 6.09336853 34.02522278 C6.08954751 40.15564047 6.07972074 46.28603453 6.06866455 52.41644287 C6.05844152 58.67020345 6.05386899 64.92396785 6.04882812 71.17773438 C6.03809813 83.45183331 6.02102666 95.72591469 6 108 C10.62 108 15.24 108 20 108 C20 89.85 20 71.7 20 53 C20.33 53 20.66 53 21 53 C21 71.48 21 89.96 21 109 C15.72 109 10.44 109 5 109 C4.99191315 107.83425949 4.98382629 106.66851898 4.97549438 105.467453 C4.8978026 94.44839233 4.81000619 83.42945163 4.71247292 72.41054821 C4.66265806 66.74646105 4.61632727 61.08239122 4.578125 55.41821289 C4.54108443 49.94569539 4.4946748 44.47332826 4.44193649 39.00094032 C4.42349186 36.91953498 4.40834781 34.83809753 4.39665604 32.7566433 C5.1692231 15.67404599 5.1692231 15.67404599 0 0 Z " fill="#386A91" transform="translate(750,35)"/>
<path d="M0 0 C3 1 3 1 5 4 C5.24609566 5.97773266 5.24609566 5.97773266 5.24050903 8.27104187 C5.24325836 9.14182373 5.24600769 10.01260559 5.24884033 10.90977478 C5.24164978 11.86211502 5.23445923 12.81445526 5.22705078 13.7956543 C5.22734283 14.80071014 5.22763489 15.80576599 5.22793579 16.84127808 C5.22654055 20.16901227 5.21097005 23.49652359 5.1953125 26.82421875 C5.19158307 29.12921527 5.18873577 31.43421337 5.18673706 33.73921204 C5.17909514 39.81047938 5.1594418 45.88165127 5.1373291 51.95288086 C5.11688273 58.14630848 5.10773793 64.3397515 5.09765625 70.53320312 C5.07619649 82.68884406 5.04205376 94.8444141 5 107 C9.62 107 14.24 107 19 107 C19 95.45 19 83.9 19 72 C20.485 72.495 20.485 72.495 22 73 C21.34 73 20.68 73 20 73 C20 84.55 20 96.1 20 108 C14.72 108 9.44 108 4 108 C3.98969254 106.84234634 3.97938507 105.68469269 3.96876526 104.49195862 C3.87083737 93.56061633 3.76808579 82.6293285 3.66066074 71.69807529 C3.60559163 66.07876525 3.55219805 60.45944986 3.50268555 54.84008789 C3.45480481 49.41301613 3.40245498 43.9860039 3.34705925 38.55900383 C3.32674264 36.49268014 3.30801266 34.42634019 3.29092598 32.35998726 C3.26664353 29.45681031 3.23662392 26.55374339 3.20532227 23.65063477 C3.1995668 22.80402283 3.19381134 21.95741089 3.18788147 21.08514404 C3.13515435 10.24181265 3.13515435 10.24181265 0 0 Z " fill="#326B98" transform="translate(598,68)"/>
<path d="M0 0 C-0.33 0.99 -0.66 1.98 -1 3 C0.04341553 3.03758423 0.04341553 3.03758423 1.10791016 3.07592773 C4.28043455 3.19245974 7.45270355 3.31492568 10.625 3.4375 C11.71941406 3.47681641 12.81382813 3.51613281 13.94140625 3.55664062 C15.00488281 3.59853516 16.06835938 3.64042969 17.1640625 3.68359375 C18.13811035 3.72025146 19.1121582 3.75690918 20.11572266 3.79467773 C23.1254852 4.00893288 26.03295916 4.45931357 29 5 C29 5.33 29 5.66 29 6 C12.5 6 -4 6 -21 6 C-15.37539085 1.78154314 -7.09296978 -2.36432326 0 0 Z " fill="#BFA36A" transform="translate(21,201)"/>
<path d="M0 0 C-3.84672454 2.24101375 -8.04410313 3.14824033 -12.32421875 4.20703125 C-13.14388626 4.41430344 -13.96355377 4.62157562 -14.80805969 4.83512878 C-17.43345918 5.49863423 -20.06030953 6.15612484 -22.6875 6.8125 C-26.10910909 7.66911309 -29.52975674 8.52938588 -32.94921875 9.39453125 C-33.7880661 9.60643097 -34.62691345 9.81833069 -35.49118042 10.03665161 C-41.95362315 11.6880806 -48.35217999 13.51806294 -54.7252655 15.48603821 C-57.60265932 16.36300455 -59.97135944 17 -63 17 C-63 16.34 -63 15.68 -63 15 C-59.39667716 13.89306722 -55.79218753 12.78997982 -52.1875 11.6875 C-50.68026367 11.2244043 -50.68026367 11.2244043 -49.14257812 10.75195312 C-39.06993544 7.67510086 -28.9584314 4.89186517 -18.6875 2.5625 C-15.07445534 1.74116958 -11.52396673 0.89353887 -8 -0.25 C-4.87116445 -1.03220889 -3.05809741 -0.92669619 0 0 Z " fill="#F0E2B5" transform="translate(185,169)"/>
<path d="M0 0 C0.33 1.32 0.66 2.64 1 4 C0.34 4 -0.32 4 -1 4 C-1.020625 5.175625 -1.04125 6.35125 -1.0625 7.5625 C-1.63775997 12.23961369 -3.72523132 14.61356085 -7.14453125 17.72265625 C-9 19 -9 19 -11.9375 19.4375 C-12.9584375 19.2209375 -12.9584375 19.2209375 -14 19 C-14.33 18.01 -14.66 17.02 -15 16 C-14.34 16 -13.68 16 -13 16 C-12.979375 15.154375 -12.95875 14.30875 -12.9375 13.4375 C-11.6139499 8.58448295 -8.65026382 6.29161345 -5 3 C-4.47148438 2.43667969 -3.94296875 1.87335937 -3.3984375 1.29296875 C-2 0 -2 0 0 0 Z " fill="#1D70AB" transform="translate(819,38)"/>
<path d="M0 0 C9.52757611 0.10773621 19.05507739 0.22041622 28.58252048 0.33933926 C33.00689369 0.39441108 37.43127367 0.44780509 41.85571289 0.49731445 C46.12866114 0.54519121 50.40153369 0.5975409 54.67439079 0.65294075 C56.30137169 0.67325916 57.92837325 0.69198887 59.55539131 0.70907402 C61.841121 0.73335253 64.12671071 0.76337258 66.41235352 0.79467773 C68.36094017 0.81799416 68.36094017 0.81799416 70.34889221 0.84178162 C73.98466443 0.99933544 77.41217548 1.42233885 81 2 C81 2.33 81 2.66 81 3 C76.71 3.33 72.42 3.66 68 4 C68 3.34 68 2.68 68 2 C66.75613525 2.03029297 65.51227051 2.06058594 64.23071289 2.09179688 C59.53219316 2.20567469 54.83361206 2.31683213 50.13500977 2.42724609 C48.11708894 2.47502841 46.09918449 2.52350897 44.08129883 2.57275391 C34.22069242 2.81295759 24.35981222 3.04481321 14.49609375 3.09375 C13.20759521 3.10083984 11.91909668 3.10792969 10.59155273 3.11523438 C6.96214972 2.99878558 3.57830268 2.58327169 0 2 C0 1.34 0 0.68 0 0 Z " fill="#E2D4BB" transform="translate(324,160)"/>
<path d="M0 0 C14.19 0 28.38 0 43 0 C42.67 0.99 42.34 1.98 42 3 C37.05154822 3.81834861 32.4092934 4.08202515 27.375 4 C23.07338617 3.93019694 19.18748796 3.97318303 15 5 C14.67 4.01 14.34 3.02 14 2 C7.07 1.505 7.07 1.505 0 1 C0 0.67 0 0.34 0 0 Z " fill="#C8AE76" transform="translate(349,162)"/>
<path d="M0 0 C-5.71236942 2.95467384 -10.70327183 3.32149746 -17.06640625 3.71875 C-19.93165746 3.81590661 -19.93165746 3.81590661 -22 5 C-25.3406635 5.31648391 -28.68217611 5.51128525 -32.03125 5.71875 C-34.9264801 5.81288062 -34.9264801 5.81288062 -37 7 C-39.00800456 6.71887936 -41.01014051 6.38932033 -43 6 C-43.33 6.66 -43.66 7.32 -44 8 C-48.29 8 -52.58 8 -57 8 C-57 7.67 -57 7.34 -57 7 C-15.30201645 -0.21775185 -15.30201645 -0.21775185 0 0 Z " fill="#ECE0AF" transform="translate(172,164)"/>
<path d="M0 0 C2.50363005 0.49625524 5.00417148 1.00089296 7.5 1.53515625 C8.325 1.70917969 9.15 1.88320312 10 2.0625 C11.2375 2.32740234 11.2375 2.32740234 12.5 2.59765625 C15.04443314 3.00715096 17.42756484 3.06890451 20 3 C20 3.66 20 4.32 20 5 C16.37 5.33 12.74 5.66 9 6 C9 6.99 9 7.98 9 9 C16.26 9 23.52 9 31 9 C26.35903524 11.32048238 23.37254774 11.34557896 18.3125 11.3125 C17.50828613 11.31121094 16.70407227 11.30992187 15.87548828 11.30859375 C10.05469705 11.21427264 5.36292749 10.38352333 0 8 C0 7.67 0 7.34 0 7 C1.98 6.67 3.96 6.34 6 6 C4.62776167 3.25552334 2.59786905 2.53207662 0 1 C0 0.67 0 0.34 0 0 Z " fill="#2F6B98" transform="translate(620,134)"/>
<path d="M0 0 C0 0.99 0 1.98 0 3 C0.3062434 4.33981486 0.63451555 5.67511887 1 7 C-2.39259214 9.60841089 -5.78962923 12.21097024 -9.1875 14.8125 C-10.14720703 15.55048828 -11.10691406 16.28847656 -12.09570312 17.04882812 C-13.49272461 18.11713867 -13.49272461 18.11713867 -14.91796875 19.20703125 C-15.77156982 19.8616333 -16.6251709 20.51623535 -17.50463867 21.19067383 C-19.93075312 22.94979076 -22.40749499 24.49971715 -25 26 C-23.3830783 21.91873377 -20.45727174 19.19393543 -17.375 16.1875 C-16.57074585 15.39291382 -16.57074585 15.39291382 -15.75024414 14.58227539 C-12.15356042 11.05458246 -8.46994695 7.65524549 -4.62109375 4.40234375 C-3.00223886 3.00193675 -1.49481669 1.53116482 0 0 Z " fill="#DCCA9C" transform="translate(34,153)"/>
<path d="M0 0 C4.65552739 2.45168232 7.96693451 5.70746268 11.61328125 9.41796875 C12.22769577 10.03521317 12.84211029 10.65245758 13.47514343 11.28840637 C15.42569652 13.2501045 17.36915806 15.21866056 19.3125 17.1875 C20.63820895 18.52324607 21.96437597 19.85853766 23.29101562 21.19335938 C26.53267189 24.45700069 29.76798847 27.72680828 33 31 C32.01 31.33 31.02 31.66 30 32 C28.66666667 30.66666667 27.33333333 29.33333333 26 28 C25.0925 27.13375 24.185 26.2675 23.25 25.375 C21 23 21 23 21 21 C19.68 20.67 18.36 20.34 17 20 C16.896875 19.360625 16.79375 18.72125 16.6875 18.0625 C16.460625 17.381875 16.23375 16.70125 16 16 C15.01 15.67 14.02 15.34 13 15 C11.31267723 13.01739574 9.64633943 11.0167658 8 9 C7.01 8.34 6.02 7.68 5 7 C5 6.34 5 5.68 5 5 C3.68 4.67 2.36 4.34 1 4 C0.67 2.68 0.34 1.36 0 0 Z " fill="#ECDFAB" transform="translate(279,116)"/>
<path d="M0 0 C10.89 0 21.78 0 33 0 C32 2 32 2 30.23754883 2.61010742 C27.76455423 3.14727754 25.29162121 3.67919758 22.8125 4.1875 C21.53536133 4.47270508 21.53536133 4.47270508 20.23242188 4.76367188 C15.50839058 5.75378207 11.77381621 6.22665981 7 5 C7 4.67 7 4.34 7 4 C9.05078125 3.77213542 11.1015625 3.54427083 13.15234375 3.31640625 C15.01140229 3.18113386 15.01140229 3.18113386 16 2 C10.72 1.67 5.44 1.34 0 1 C0 0.67 0 0.34 0 0 Z " fill="#E6D8B4" transform="translate(177,163)"/>
<path d="M0 0 C0.74636719 0.12375 1.49273437 0.2475 2.26171875 0.375 C0.58032705 6.86207154 -1.26890452 13.1427635 -3.73828125 19.375 C-4.06828125 19.375 -4.39828125 19.375 -4.73828125 19.375 C-4.73828125 16.405 -4.73828125 13.435 -4.73828125 10.375 C-6.38828125 11.035 -8.03828125 11.695 -9.73828125 12.375 C-8.6992072 10.3627298 -7.63120458 8.36537476 -6.55078125 6.375 C-5.95910156 5.26125 -5.36742187 4.1475 -4.7578125 3 C-2.73828125 0.375 -2.73828125 0.375 0 0 Z " fill="#2F6B9B" transform="translate(407.73828125,116.625)"/>
<path d="M0 0 C1.48337608 0.00424484 1.48337608 0.00424484 2.99671936 0.00857544 C6.1346582 0.01971108 9.27230464 0.04480347 12.41015625 0.0703125 C14.54621982 0.08035085 16.68228789 0.0894752 18.81835938 0.09765625 C24.03655698 0.1196287 29.25458571 0.15303996 34.47265625 0.1953125 C34.47265625 1.8453125 34.47265625 3.4953125 34.47265625 5.1953125 C32.82265625 5.1953125 31.17265625 5.1953125 29.47265625 5.1953125 C29.47265625 4.5353125 29.47265625 3.8753125 29.47265625 3.1953125 C30.46265625 3.1953125 31.45265625 3.1953125 32.47265625 3.1953125 C32.47265625 2.5353125 32.47265625 1.8753125 32.47265625 1.1953125 C26.58248626 1.28899465 20.69272015 1.39512213 14.80297852 1.51269531 C12.80011101 1.55093467 10.797176 1.58579631 8.79418945 1.6171875 C5.91202708 1.66294746 3.03032731 1.72092404 0.1484375 1.78125 C-0.7444548 1.79280121 -1.63734711 1.80435242 -2.55729675 1.81625366 C-7.02586917 1.92189291 -10.42474835 2.25017061 -14.52734375 4.1953125 C-17.33984375 4.3203125 -17.33984375 4.3203125 -19.52734375 4.1953125 C-14.46372183 -0.86830942 -6.6674614 -0.07258594 0 0 Z " fill="#306A95" transform="translate(454.52734375,59.8046875)"/>
<path d="M0 0 C3.54150893 -0.08761663 7.08273633 -0.14059739 10.625 -0.1875 C11.62402344 -0.21263672 12.62304688 -0.23777344 13.65234375 -0.26367188 C19.30805032 -0.31985439 23.21096571 -0.11368953 28 3 C27.01 3.495 27.01 3.495 26 4 C25.34 3.67 24.68 3.34 24 3 C22.5534758 2.84932786 21.1012066 2.75138964 19.6484375 2.68359375 C18.37226562 2.62075195 18.37226562 2.62075195 17.0703125 2.55664062 C16.18085937 2.51732422 15.29140625 2.47800781 14.375 2.4375 C13.4778125 2.39431641 12.580625 2.35113281 11.65625 2.30664062 C9.43765717 2.20043139 7.2189512 2.09838806 5 2 C5 2.66 5 3.32 5 4 C6.65 4 8.3 4 10 4 C10.33 4.66 10.66 5.32 11 6 C7.37 5.34 3.74 4.68 0 4 C0 2.68 0 1.36 0 0 Z " fill="#336A93" transform="translate(851,29)"/>
<path d="M0 0 C-1.4030527 3.27856192 -3.01148468 5.1141327 -5.75 7.375 C-8.44086394 9.62713613 -10.88701467 11.90794977 -13.25 14.5 C-14.61125 15.7375 -14.61125 15.7375 -16 17 C-18.171875 16.65625 -18.171875 16.65625 -20 16 C-17.75831239 13.70007511 -15.50527417 11.41159742 -13.25 9.125 C-12.29867187 8.14853516 -12.29867187 8.14853516 -11.328125 7.15234375 C-10.4 6.21455078 -10.4 6.21455078 -9.453125 5.2578125 C-8.88754883 4.6817627 -8.32197266 4.10571289 -7.73925781 3.51220703 C-5.34434469 1.42993697 -3.22329119 0 0 0 Z " fill="#CFB689" transform="translate(174,23)"/>
<path d="M0 0 C-6.01428076 2.33828276 -11.57753305 4.30190577 -18 5 C-18.33 5.33 -18.66 5.66 -19 6 C-24.0698552 6.93119789 -28.87118304 7.08997924 -34 7 C-28.73142641 4.07748938 -22.82186094 3.15430635 -17 1.8125 C-15.81148437 1.52697266 -14.62296875 1.24144531 -13.3984375 0.94726562 C-12.25632812 0.68236328 -11.11421875 0.41746094 -9.9375 0.14453125 C-8.37322266 -0.22128052 -8.37322266 -0.22128052 -6.77734375 -0.59448242 C-4.09598785 -0.9859849 -2.52731585 -0.88675756 0 0 Z " fill="#E3D3A7" transform="translate(114,173)"/>
<path d="M0 0 C-4.36574511 2.32815011 -8.85172906 3.41586509 -13.625 4.625 C-14.90310547 4.96917969 -14.90310547 4.96917969 -16.20703125 5.3203125 C-22.23533779 6.85246908 -27.79080698 7.28442861 -34 7 C-34 6.67 -34 6.34 -34 6 C-32.865625 5.896875 -31.73125 5.79375 -30.5625 5.6875 C-26.65125429 5.20116297 -23.20693093 4.13593758 -19.5 2.8359375 C-16.60602633 1.86826506 -13.69813428 1.03761431 -10.75 0.25 C-9.77546875 -0.01296875 -8.8009375 -0.2759375 -7.796875 -0.546875 C-4.86257974 -1.02226362 -2.84957901 -0.76959433 0 0 Z " fill="#E9DAA1" transform="translate(185,169)"/>
<path d="M0 0 C0.33 1.65 0.66 3.3 1 5 C-4.75 9 -4.75 9 -7 9 C-6.67 7.68 -6.34 6.36 -6 5 C-5.34 5 -4.68 5 -4 5 C-3.67 4.34 -3.34 3.68 -3 3 C-3.53367187 3.32355469 -4.06734375 3.64710938 -4.6171875 3.98046875 C-7.57499155 5.24602097 -9.9151227 5.30066999 -13.125 5.3125 C-14.17945313 5.32925781 -15.23390625 5.34601563 -16.3203125 5.36328125 C-17.20460938 5.24339844 -18.08890625 5.12351563 -19 5 C-19.66 4.01 -20.32 3.02 -21 2 C-19.865625 2.20625 -18.73125 2.4125 -17.5625 2.625 C-11.0753918 3.45757004 -5.98565422 0 0 0 Z " fill="#306B92" transform="translate(736,134)"/>
<path d="M0 0 C3.72901814 -0.08736736 7.45777165 -0.14051482 11.1875 -0.1875 C12.24259766 -0.21263672 13.29769531 -0.23777344 14.38476562 -0.26367188 C15.91713867 -0.27817383 15.91713867 -0.27817383 17.48046875 -0.29296875 C18.41785889 -0.3086792 19.35524902 -0.32438965 20.32104492 -0.34057617 C23.49326811 0.06270929 25.38735754 1.20367882 28 3 C25.43002129 3 22.8976122 2.91198024 20.33203125 2.78125 C19.43935547 2.73613281 18.54667969 2.69101562 17.62695312 2.64453125 C16.69818359 2.59683594 15.76941406 2.54914062 14.8125 2.5 C13.87212891 2.45230469 12.93175781 2.40460937 11.96289062 2.35546875 C9.64189202 2.23765156 7.32093123 2.11913586 5 2 C5 2.66 5 3.32 5 4 C3.35 4 1.7 4 0 4 C0 2.68 0 1.36 0 0 Z " fill="#326A93" transform="translate(739,29)"/>
<path d="M0 0 C2 0.3125 2 0.3125 4 1 C4.33 1.66 4.66 2.32 5 3 C4.01 3 3.02 3 2 3 C1.67 5.31 1.34 7.62 1 10 C-1.31 10.33 -3.62 10.66 -6 11 C-6 11.66 -6 12.32 -6 13 C-6.66 13 -7.32 13 -8 13 C-8.33 11.35 -8.66 9.7 -9 8 C-5.535 7.505 -5.535 7.505 -2 7 C-1.855625 6.030625 -1.71125 5.06125 -1.5625 4.0625 C-1 1 -1 1 0 0 Z " fill="#1E71AD" transform="translate(792,63)"/>
<path d="M0 0 C1.37478516 0.01740234 1.37478516 0.01740234 2.77734375 0.03515625 C3.69644531 0.04417969 4.61554687 0.05320313 5.5625 0.0625 C6.27277344 0.07410156 6.98304688 0.08570313 7.71484375 0.09765625 C7.05484375 2.40765625 6.39484375 4.71765625 5.71484375 7.09765625 C5.38484375 7.09765625 5.05484375 7.09765625 4.71484375 7.09765625 C4.71484375 5.44765625 4.71484375 3.79765625 4.71484375 2.09765625 C1.74484375 1.60265625 1.74484375 1.60265625 -1.28515625 1.09765625 C-1.94515625 4.39765625 -2.60515625 7.69765625 -3.28515625 11.09765625 C-3.94515625 11.09765625 -4.60515625 11.09765625 -5.28515625 11.09765625 C-5.41792969 11.81308594 -5.55070313 12.52851562 -5.6875 13.265625 C-6.2728916 16.03953947 -7.01674069 18.700649 -7.84765625 21.41015625 C-8.11707031 22.29316406 -8.38648438 23.17617187 -8.6640625 24.0859375 C-8.97150391 25.08173828 -8.97150391 25.08173828 -9.28515625 26.09765625 C-9.94515625 26.09765625 -10.60515625 26.09765625 -11.28515625 26.09765625 C-10.6666373 22.70183635 -9.83050863 19.52652993 -8.69140625 16.26953125 C-8.38332031 15.3878125 -8.07523438 14.50609375 -7.7578125 13.59765625 C-7.43683594 12.69015625 -7.11585938 11.78265625 -6.78515625 10.84765625 C-6.46417969 9.9246875 -6.14320313 9.00171875 -5.8125 8.05078125 C-3.02837369 0.12941768 -3.02837369 0.12941768 0 0 Z " fill="#346994" transform="translate(574.28515625,61.90234375)"/>
<path d="M0 0 C15.84 0.495 15.84 0.495 32 1 C32 1.33 32 1.66 32 2 C26.43474829 2.79055436 21.05501142 3.15550232 15.4375 3.125 C14.36338867 3.13080078 14.36338867 3.13080078 13.26757812 3.13671875 C8.74632365 3.12849081 4.46094321 2.73860558 0 2 C0 1.34 0 0.68 0 0 Z " fill="#DECB9A" transform="translate(324,160)"/>
<path d="M0 0 C1.16144531 0.00902344 2.32289063 0.01804687 3.51953125 0.02734375 C4.39996094 0.03894531 5.28039062 0.05054687 6.1875 0.0625 C6.230221 1.72861905 6.22813832 3.39632885 6.1875 5.0625 C5.1875 6.0625 5.1875 6.0625 3.33984375 6.16015625 C1.2890625 6.12760417 -0.76171875 6.09505208 -2.8125 6.0625 C-2.8125 5.7325 -2.8125 5.4025 -2.8125 5.0625 C0.6525 4.5675 0.6525 4.5675 4.1875 4.0625 C4.1875 3.4025 4.1875 2.7425 4.1875 2.0625 C1.81087178 2.1501873 -0.56233127 2.25713114 -2.9375 2.375 C-3.93523438 2.40883789 -3.93523438 2.40883789 -4.953125 2.44335938 C-9.60929018 2.69442711 -12.73341499 3.90191639 -16.8125 6.0625 C-17.4725 5.7325 -18.1325 5.4025 -18.8125 5.0625 C-12.27078408 1.08616287 -7.75523686 -0.07833573 0 0 Z " fill="#356B93" transform="translate(838.8125,28.9375)"/>
<path d="M0 0 C3.62986889 3.29988081 4.89532097 5.71938126 5.30078125 10.6796875 C5.31532004 12.07805488 5.31891481 13.47657176 5.3125 14.875 C5.32861328 15.56980469 5.34472656 16.26460937 5.36132812 16.98046875 C5.36580693 21.73695623 4.4197014 24.92672956 2 29 C1.67 27.68 1.34 26.36 1 25 C1.66 25 2.32 25 3 25 C2.67 19.06 2.34 13.12 2 7 C1.34 6.67 0.68 6.34 0 6 C0 4.02 0 2.04 0 0 Z " fill="#326B97" transform="translate(484,72)"/>
<path d="M0 0 C5.30190684 -0.04959331 10.60367737 -0.085811 15.90576172 -0.10986328 C17.70786899 -0.11989476 19.5099601 -0.13352315 21.31201172 -0.15087891 C23.90856935 -0.175253 26.50491097 -0.18651178 29.1015625 -0.1953125 C29.9017984 -0.20563507 30.7020343 -0.21595764 31.52651978 -0.22659302 C36.08590521 -0.22749887 39.70498223 0.26397184 44 2 C44 2.66 44 3.32 44 4 C43.32807617 3.86287598 42.65615234 3.72575195 41.96386719 3.58447266 C33.06074175 1.91979386 24.27216959 1.56963557 15.25 1.375 C13.76300086 1.33670539 12.27602117 1.29764758 10.7890625 1.2578125 C7.19288911 1.16310095 3.59656524 1.07863091 0 1 C0 0.67 0 0.34 0 0 Z " fill="#306A98" transform="translate(348,35)"/>
<path d="M0 0 C0.99 0.33 1.98 0.66 3 1 C1.125 4.875 1.125 4.875 0 6 C-3.5 6.5 -3.5 6.5 -7 7 C-7.33 7.33 -7.66 7.66 -8 8 C-10.35313555 8.07271741 -12.70833668 8.08370868 -15.0625 8.0625 C-16.35285156 8.05347656 -17.64320313 8.04445312 -18.97265625 8.03515625 C-19.97167969 8.02355469 -20.97070312 8.01195312 -22 8 C-22 7.67 -22 7.34 -22 7 C-21.40461426 6.88406494 -20.80922852 6.76812988 -20.19580078 6.64868164 C-17.50493604 6.12296202 -14.8149682 5.59278705 -12.125 5.0625 C-11.18785156 4.88009766 -10.25070313 4.69769531 -9.28515625 4.50976562 C-8.38925781 4.33251953 -7.49335938 4.15527344 -6.5703125 3.97265625 C-5.74289551 3.81031494 -4.91547852 3.64797363 -4.06298828 3.48071289 C-1.95281634 3.07331058 -1.95281634 3.07331058 0 2 C0 1.34 0 0.68 0 0 Z " fill="#ECE0B4" transform="translate(245,161)"/>
<path d="M0 0 C0.33 0.66 0.66 1.32 1 2 C0.32904297 2.76183594 0.32904297 2.76183594 -0.35546875 3.5390625 C-0.96003906 4.22742188 -1.56460938 4.91578125 -2.1875 5.625 C-3.14849609 6.71167969 -3.14849609 6.71167969 -4.12890625 7.8203125 C-5.71410727 9.66695586 -7.16771011 11.55384289 -8.625 13.5 C-11 16 -11 16 -13.8125 16.375 C-14.534375 16.25125 -15.25625 16.1275 -16 16 C-11.17917294 10.03739811 -5.77505724 5.03320206 0 0 Z " fill="#D6C293" transform="translate(115,76)"/>
<path d="M0 0 C1.98 0.99 1.98 0.99 4 2 C4 3.32 4 4.64 4 6 C4.99 6 5.98 6 7 6 C7.28875 6.78375 7.5775 7.5675 7.875 8.375 C8.84912254 11.09671632 8.84912254 11.09671632 11 13 C12.6875 15.375 12.6875 15.375 14 18 C13.58203125 20.1640625 13.58203125 20.1640625 13 22 C11.20106901 19.27555809 9.41218479 16.54465875 7.625 13.8125 C7.11710938 13.04357422 6.60921875 12.27464844 6.0859375 11.48242188 C3.65513037 7.75625042 1.41519532 4.25411124 0 0 Z " fill="#EDDCAC" transform="translate(229,136)"/>
<path d="M0 0 C6.41069287 5.27101414 12.18590512 11.09128152 18 17 C17.67 17.66 17.34 18.32 17 19 C3.68041237 8.59407216 3.68041237 8.59407216 0 2 C0 1.34 0 0.68 0 0 Z " fill="#F3E8BF" transform="translate(263,98)"/>
<path d="M0 0 C0.93134766 0.00322266 1.86269531 0.00644531 2.82226562 0.00976562 C4.26182617 0.02233398 4.26182617 0.02233398 5.73046875 0.03515625 C6.70951172 0.03966797 7.68855469 0.04417969 8.69726562 0.04882812 C11.10422986 0.06056941 13.51106732 0.07699206 15.91796875 0.09765625 C15.91796875 0.42765625 15.91796875 0.75765625 15.91796875 1.09765625 C15.06247437 1.13524048 15.06247437 1.13524048 14.18969727 1.17358398 C11.61970718 1.28922174 9.05011348 1.41209249 6.48046875 1.53515625 C5.58263672 1.57447266 4.68480469 1.61378906 3.75976562 1.65429688 C2.90576172 1.69619141 2.05175781 1.73808594 1.171875 1.78125 C0.38111572 1.81790771 -0.40964355 1.85456543 -1.22436523 1.89233398 C-3.09604566 1.90328882 -3.09604566 1.90328882 -4.08203125 3.09765625 C-6.30348758 3.38153404 -8.52520773 3.54530798 -10.7578125 3.71875 C-13.1177839 3.97408822 -13.1177839 3.97408822 -15.125 5.1953125 C-17.5409814 6.30926799 -18.62829945 5.97398904 -21.08203125 5.09765625 C-19.35459109 4.44721906 -17.62499435 3.80250781 -15.89453125 3.16015625 C-14.93160156 2.80050781 -13.96867188 2.44085938 -12.9765625 2.0703125 C-8.59780445 0.59890797 -4.61512633 -0.02831366 0 0 Z " fill="#316A95" transform="translate(984.08203125,95.90234375)"/>
<path d="M0 0 C-2.71085484 3.66331735 -6.60649781 4.17169035 -10.8125 5.125 C-11.86147461 5.37830078 -11.86147461 5.37830078 -12.93164062 5.63671875 C-16.93359598 6.58760431 -20.93225613 7.37419325 -25 8 C-22.10782461 5.10782461 -18.53420192 4.20424067 -14.75 2.875 C-13.99847656 2.59785156 -13.24695312 2.32070312 -12.47265625 2.03515625 C-8.1668706 0.50972084 -4.6362092 -0.33959494 0 0 Z " fill="#CEB98A" transform="translate(37,194)"/>
<path d="M0 0 C1 3 1 3 0.4453125 4.890625 C-1.57440376 7.838319 -4.25217341 9.70369428 -7.125 11.75 C-7.96998047 12.36681641 -7.96998047 12.36681641 -8.83203125 12.99609375 C-10.21601634 14.00476085 -11.60730541 15.00339286 -13 16 C-13 13 -13 13 -11.80664062 11.46606445 C-11.26201172 10.937146 -10.71738281 10.40822754 -10.15625 9.86328125 C-9.56972656 9.28642578 -8.98320312 8.70957031 -8.37890625 8.11523438 C-7.75886719 7.52033203 -7.13882812 6.92542969 -6.5 6.3125 C-5.87996094 5.70599609 -5.25992187 5.09949219 -4.62109375 4.47460938 C-3.08735293 2.97626257 -1.54451802 1.48723507 0 0 Z " fill="#E2D8B5" transform="translate(23,163)"/>
<path d="M0 0 C0.66 0.33 1.32 0.66 2 1 C0.85546875 2.953125 0.85546875 2.953125 -1 5 C-3.69921875 5.609375 -3.69921875 5.609375 -6.6875 5.75 C-7.68136719 5.80671875 -8.67523437 5.8634375 -9.69921875 5.921875 C-10.83810547 5.96054688 -10.83810547 5.96054688 -12 6 C-12 7.32 -12 8.64 -12 10 C-9.03 10 -6.06 10 -3 10 C-3 10.33 -3 10.66 -3 11 C-6.63 11 -10.26 11 -14 11 C-14 9.02 -14 7.04 -14 5 C-13.24074219 4.80664062 -12.48148438 4.61328125 -11.69921875 4.4140625 C-10.70535156 4.15367187 -9.71148438 3.89328125 -8.6875 3.625 C-7.70136719 3.36976563 -6.71523438 3.11453125 -5.69921875 2.8515625 C-2.8194184 2.08086826 -2.8194184 2.08086826 0 0 Z " fill="#336B94" transform="translate(529,167)"/>
<path d="M0 0 C-3.87729271 1.26985569 -5.71324802 0.31687012 -9.4296875 -1.23046875 C-14.77125351 -2.8296914 -20.45774631 -2.77426214 -26 -3 C-26 -2.34 -26 -1.68 -26 -1 C-27.8125 -0.375 -27.8125 -0.375 -30 0 C-30.99 -0.66 -31.98 -1.32 -33 -2 C-22.11064789 -6.22067911 -10.37448056 -4.9234823 0 0 Z " fill="#306B95" transform="translate(1100,64)"/>
<path d="M0 0 C0.99 0.33 1.98 0.66 3 1 C2.40832031 1.45890625 1.81664062 1.9178125 1.20703125 2.390625 C-2.88379822 5.56719079 -6.96818271 8.74853444 -11 12 C-10.75 8.625 -10.75 8.625 -10 5 C-8.25 3.6875 -8.25 3.6875 -6 3 C-2.75120655 1.89804776 -2.75120655 1.89804776 0 0 Z " fill="#2E6C9A" transform="translate(828,37)"/>
<path d="M0 0 C2.64 0 5.28 0 8 0 C8 8.58 8 17.16 8 26 C7.67 26 7.34 26 7 26 C7 17.75 7 9.5 7 1 C5.02 1.33 3.04 1.66 1 2 C0.01 3.485 0.01 3.485 -1 5 C-1.66 5 -2.32 5 -3 5 C-1.125 1.125 -1.125 1.125 0 0 Z " fill="#336B97" transform="translate(702,36)"/>
<path d="M0 0 C0 3 0 3 -1.2421875 4.4296875 C-2.05042969 5.14511719 -2.05042969 5.14511719 -2.875 5.875 C-5.08488369 7.93619082 -5.93863556 8.81999764 -6.9375 11.75 C-8 14 -8 14 -11.625 15.3125 C-12.73875 15.539375 -13.8525 15.76625 -15 16 C-10.30233025 10.33870569 -5.25276628 5.14771096 0 0 Z " fill="#2F6D98" transform="translate(814,39)"/>
<path d="M0 0 C0.66 0.33 1.32 0.66 2 1 C1.67 1.66 1.34 2.32 1 3 C0.34 3 -0.32 3 -1 3 C-1.1546875 3.8971875 -1.1546875 3.8971875 -1.3125 4.8125 C-2.43347219 8.37922969 -4.52851714 9.6780117 -7.5625 11.75 C-8.366875 12.1625 -9.17125 12.575 -10 13 C-10.66 12.67 -11.32 12.34 -12 12 C-8.04 8.04 -4.08 4.08 0 0 Z " fill="#DAC49F" transform="translate(128,63)"/>
<path d="M0 0 C0.83144531 0.00902344 1.66289063 0.01804688 2.51953125 0.02734375 C4.55481337 0.0507378 6.58994564 0.08660275 8.625 0.125 C8.625 0.455 8.625 0.785 8.625 1.125 C3.015 1.125 -2.595 1.125 -8.375 1.125 C-8.375 1.785 -8.375 2.445 -8.375 3.125 C-11.675 3.785 -14.975 4.445 -18.375 5.125 C-12.92586771 -0.32413229 -7.27606984 -0.1508595 0 0 Z " fill="#316A96" transform="translate(640.375,59.875)"/>
<path d="M0 0 C0 0.66 0 1.32 0 2 C0.66 2.66 1.32 3.32 2 4 C-5.92 4.495 -5.92 4.495 -14 5 C-11.96470413 2.96470413 -10.76582618 2.3615728 -8.125 1.375 C-7.10792969 0.98441406 -7.10792969 0.98441406 -6.0703125 0.5859375 C-4 0 -4 0 0 0 Z " fill="#D1BF8E" transform="translate(106,202)"/>
<path d="M0 0 C0.66 0 1.32 0 2 0 C2.33 0.99 2.66 1.98 3 3 C3.99 3.66 4.98 4.32 6 5 C5.8125 6.875 5.8125 6.875 5 9 C2.5625 10.125 2.5625 10.125 0 11 C-0.66 11.66 -1.32 12.32 -2 13 C-4.125 12.625 -4.125 12.625 -6 12 C-4.71186658 11.16121545 -3.41936744 10.32913217 -2.125 9.5 C-1.40570313 9.0359375 -0.68640625 8.571875 0.0546875 8.09375 C2 7 2 7 4 7 C4 6.34 4 5.68 4 5 C3.01 4.67 2.02 4.34 1 4 C0.3125 1.9375 0.3125 1.9375 0 0 Z " fill="#316B97" transform="translate(431,122)"/>
<path d="M0 0 C0 0.66 0 1.32 0 2 C-0.99 2.495 -0.99 2.495 -2 3 C-0.35 3.33 1.3 3.66 3 4 C3 4.33 3 4.66 3 5 C-1.95 5 -6.9 5 -12 5 C-7.90310444 1.92732833 -5.13829491 0 0 0 Z " fill="#CABE99" transform="translate(12,202)"/>
<path d="M0 0 C0.68384766 0.00902344 1.36769531 0.01804688 2.07226562 0.02734375 C3.73583287 0.05061042 5.39921631 0.08646833 7.0625 0.125 C7.0625 0.455 7.0625 0.785 7.0625 1.125 C-0.34893564 2.55125566 -7.38612068 3.42571865 -14.9375 3.125 C-14.9375 2.795 -14.9375 2.465 -14.9375 2.125 C-9.77803135 0.4208322 -5.4949667 -0.09725605 0 0 Z " fill="#EAD6A7" transform="translate(322.9375,172.875)"/>
<path d="M0 0 C0.33 0 0.66 0 1 0 C1.24911914 8.58077055 0.69882188 16.58173087 -1 25 C-1.33 25 -1.66 25 -2 25 C-2.33 20.71 -2.66 16.42 -3 12 C-2.34 11.67 -1.68 11.34 -1 11 C-0.5316735 8.41394668 -0.5316735 8.41394668 -0.375 5.4375 C-0.30023437 4.42558594 -0.22546875 3.41367188 -0.1484375 2.37109375 C-0.09945312 1.58863281 -0.05046875 0.80617188 0 0 Z " fill="#316A95" transform="translate(671,96)"/>
<path d="M0 0 C3.87511727 0.54984772 5.59576506 2.27555331 8.25 5.0625 C8.95640625 5.79597656 9.6628125 6.52945312 10.390625 7.28515625 C10.92171875 7.85105469 11.4528125 8.41695312 12 9 C8.38462395 9 6.88834003 8.10770759 4 6 C4 5.01 4 4.02 4 3 C2.02 3 0.04 3 -2 3 C-1.34 2.01 -0.68 1.02 0 0 Z " fill="#D8C9A4" transform="translate(179,15)"/>
<path d="M0 0 C2.31 0 4.62 0 7 0 C3.83648952 2.10900699 1.11959156 3.0584157 -2.5 4.1875 C-3.6446875 4.55230469 -4.789375 4.91710937 -5.96875 5.29296875 C-9 6 -9 6 -12 5 C-9.50494038 2.50494038 -8.32671112 2.64051624 -4.875 2.375 C-3.96492188 2.30023438 -3.05484375 2.22546875 -2.1171875 2.1484375 C-1.06917969 2.07496094 -1.06917969 2.07496094 0 2 C0 1.34 0 0.68 0 0 Z " fill="#E9DAAD" transform="translate(114,186)"/>
<path d="M0 0 C0 0.99 0 1.98 0 3 C-0.763125 3.20625 -1.52625 3.4125 -2.3125 3.625 C-5.82229103 5.42070704 -6.52599781 7.43136312 -8 11 C-8.99 10.67 -9.98 10.34 -11 10 C-9.7978674 5.32503988 -7.45867887 3.53616659 -3.65625 0.91796875 C-2 0 -2 0 0 0 Z " fill="#D2BA7D" transform="translate(44,148)"/>
<path d="M0 0 C-1.44781793 3.44428265 -3.27694609 5.36130962 -6.125 7.75 C-7.21167969 8.67039062 -7.21167969 8.67039062 -8.3203125 9.609375 C-8.87460938 10.06828125 -9.42890625 10.5271875 -10 11 C-10 7.31446856 -9.1477418 5.96240248 -7 3 C-2.75862069 0 -2.75862069 0 0 0 Z " fill="#C2A875" transform="translate(174,23)"/>
<path d="M0 0 C-5.16017278 2.98746845 -10.19834261 4.02541328 -16 5 C-16 4.34 -16 3.68 -16 3 C-13.89936424 2.30178583 -11.79434263 1.61675528 -9.6875 0.9375 C-8.51574219 0.55464844 -7.34398437 0.17179688 -6.13671875 -0.22265625 C-3 -1 -3 -1 0 0 Z " fill="#ECDDA9" transform="translate(138,181)"/>
<path d="M0 0 C0.33 0 0.66 0 1 0 C2.125 5.75 2.125 5.75 1 8 C0.34 8 -0.32 8 -1 8 C-1.19335938 8.71027344 -1.38671875 9.42054687 -1.5859375 10.15234375 C-1.84632813 11.07144531 -2.10671875 11.99054688 -2.375 12.9375 C-2.63023437 13.85402344 -2.88546875 14.77054688 -3.1484375 15.71484375 C-4 18 -4 18 -6 19 C-4.3186083 12.51292846 -2.46937673 6.2322365 0 0 Z " fill="#316996" transform="translate(558,99)"/>
<path d="M0 0 C4.52615993 3.67832017 8.39424999 7.41086363 12 12 C7.75153925 11.52794881 5.73180712 9.11122478 3 6 C3 5.34 3 4.68 3 4 C2.01 3.67 1.02 3.34 0 3 C0 2.01 0 1.02 0 0 Z " fill="#F0DFB2" transform="translate(233,68)"/>
<path d="M0 0 C-0.33 0.99 -0.66 1.98 -1 3 C-2.27875 3.12375 -3.5575 3.2475 -4.875 3.375 C-8.34790936 3.69042399 -8.34790936 3.69042399 -11 6 C-13.625 6.125 -13.625 6.125 -16 6 C-16 5.34 -16 4.68 -16 4 C-14.08594633 3.32586789 -12.16863974 2.6609668 -10.25 2 C-9.18265625 1.62875 -8.1153125 1.2575 -7.015625 0.875 C-4 0 -4 0 0 0 Z " fill="#D3C296" transform="translate(147,187)"/>
<path d="M0 0 C0.66 0.33 1.32 0.66 2 1 C0.90344712 2.31886772 -0.20253423 3.62990057 -1.3125 4.9375 C-1.92738281 5.66839844 -2.54226563 6.39929688 -3.17578125 7.15234375 C-5 9 -5 9 -8 10 C-6.5682479 4.98886765 -4.01554307 3.05530451 0 0 Z " fill="#2F6B99" transform="translate(961,102)"/>
<path d="M0 0 C0.66 0.66 1.32 1.32 2 2 C0.37982158 3.33918806 -1.24629343 4.6711969 -2.875 6 C-4.23238281 7.11375 -4.23238281 7.11375 -5.6171875 8.25 C-8 10 -8 10 -10 10 C-10 9.01 -10 8.02 -10 7 C-8.35 6.67 -6.7 6.34 -5 6 C-5 5.01 -5 4.02 -5 3 C-2.5 1.3125 -2.5 1.3125 0 0 Z " fill="#D6C394" transform="translate(115,96)"/>
<path d="M0 0 C0.598125 0.226875 1.19625 0.45375 1.8125 0.6875 C1.008125 1.450625 0.20375 2.21375 -0.625 3 C-3.35549024 5.48180898 -3.35549024 5.48180898 -4.1875 8.6875 C-5.1775 8.3575 -6.1675 8.0275 -7.1875 7.6875 C-4.27205882 -0.61029412 -4.27205882 -0.61029412 0 0 Z " fill="#CCB581" transform="translate(152.1875,42.3125)"/>
<path d="M0 0 C0 0.66 0 1.32 0 2 C-1.093125 2.309375 -2.18625 2.61875 -3.3125 2.9375 C-5.55407994 3.58337897 -7.7869351 4.2623117 -10 5 C-10.99 4.34 -11.98 3.68 -13 3 C-12.01 3 -11.02 3 -10 3 C-10 2.34 -10 1.68 -10 1 C-6.61981469 -0.04005702 -3.5219721 -0.08004482 0 0 Z " fill="#C2A976" transform="translate(177,179)"/>
<path d="M0 0 C1.65 0 3.3 0 5 0 C4.55005243 1.79379098 4.08975857 3.58498928 3.625 5.375 C3.36976563 6.37273437 3.11453125 7.37046875 2.8515625 8.3984375 C2 11 2 11 0 13 C0.33 9.7 0.66 6.4 1 3 C0.01 3.495 0.01 3.495 -1 4 C-0.67 2.68 -0.34 1.36 0 0 Z " fill="#39698D" transform="translate(405,117)"/>
<path d="M0 0 C1.17539996 0.92652701 2.34010577 1.86663387 3.5 2.8125 C4.1496875 3.33457031 4.799375 3.85664062 5.46875 4.39453125 C7 6 7 6 7 9 C5.68 8.01 4.36 7.02 3 6 C2.67 6.66 2.34 7.32 2 8 C0.93224776 6.03533587 -0.06553465 4.03144641 -1 2 C-0.67 1.34 -0.34 0.68 0 0 Z " fill="#2F6B9A" transform="translate(810,104)"/>
<path d="M0 0 C-1.1427919 1.16964602 -2.28931715 2.33564556 -3.4375 3.5 C-4.07558594 4.1496875 -4.71367188 4.799375 -5.37109375 5.46875 C-7 7 -7 7 -8 7 C-8.25 4.6875 -8.25 4.6875 -8 2 C-5.17904206 -1.02245494 -3.81217262 -1.16927984 0 0 Z " fill="#2C6D9B" transform="translate(809,58)"/>
<path d="M0 0 C1.32 0 2.64 0 4 0 C3.8125 1.8125 3.8125 1.8125 3 4 C-1.17857143 7 -1.17857143 7 -4 7 C-3.67 5.68 -3.34 4.36 -3 3 C-2.34 3 -1.68 3 -1 3 C-0.67 2.01 -0.34 1.02 0 0 Z " fill="#2B6D9C" transform="translate(733,136)"/>
<path d="M0 0 C0 3 0 3 -2.5 5.6875 C-3.325 6.450625 -4.15 7.21375 -5 8 C-7.475 7.01 -7.475 7.01 -10 6 C-6.74147635 3.8276509 -3.40755272 1.92880342 0 0 Z " fill="#306B9A" transform="translate(397,129)"/>
<path d="M0 0 C-4.455 3.465 -4.455 3.465 -9 7 C-9.66 6.67 -10.32 6.34 -11 6 C-10.67 5.34 -10.34 4.68 -10 4 C-9.34 4 -8.68 4 -8 4 C-7.71125 3.360625 -7.4225 2.72125 -7.125 2.0625 C-5.09951271 -1.65089337 -4.1497079 -1.03742698 0 0 Z " fill="#D5C195" transform="translate(144,78)"/>
<path d="M0 0 C2.25597827 2.25597827 2.96574192 4.04603867 4.125 7 C4.47820313 7.886875 4.83140625 8.77375 5.1953125 9.6875 C6 12 6 12 6 14 C5.34 14 4.68 14 4 14 C1.20408449 11.0453041 0.57597303 8.75479001 0.3125 4.75 C0.24675781 3.85796875 0.18101562 2.9659375 0.11328125 2.046875 C0.07589844 1.37140625 0.03851562 0.6959375 0 0 Z " fill="#346A96" transform="translate(531,73)"/>
<path d="M0 0 C0 3 0 3 -1.8125 5.125 C-4 7 -4 7 -7 8 C-6.4376049 4.73810844 -5.5859495 3.08865152 -3 1 C-2.01 0.67 -1.02 0.34 0 0 Z " fill="#CDAF79" transform="translate(141,53)"/>
<path d="M0 0 C-1 2 -1 2 -4.3125 3.125 C-8 4 -8 4 -12 4 C-12 3.34 -12 2.68 -12 2 C-7.82262526 0.40861915 -4.46839215 -0.21278058 0 0 Z " fill="#DCCA9A" transform="translate(212,195)"/>
<path d="M0 0 C2.97 0.495 2.97 0.495 6 1 C2.80331012 3.6486859 -0.39486597 5.93992341 -4 8 C-3.6875 6.125 -3.6875 6.125 -3 4 C-2.01 3.34 -1.02 2.68 0 2 C0 1.34 0 0.68 0 0 Z " fill="#2F6A98" transform="translate(1064,68)"/>
<path d="M0 0 C1.98 0 3.96 0 6 0 C4.02 2.31 2.04 4.62 0 7 C-1 3 -1 3 0 0 Z " fill="#2C6C9A" transform="translate(794,66)"/>
<path d="M0 0 C0.99 0.33 1.98 0.66 3 1 C2 4 2 4 -0.375 5.75 C-3 7 -3 7 -6 6 C-4.02 4.02 -2.04 2.04 0 0 Z " fill="#D5BB87" transform="translate(94,96)"/>
<path d="M0 0 C0 0.99 0 1.98 0 3 C-3.3 3 -6.6 3 -10 3 C-6.88378718 -0.11621282 -4.21175599 -0.11383124 0 0 Z " fill="#CAB37E" transform="translate(60,204)"/>
<path d="M0 0 C-2.85584773 1.90389849 -4.9311762 2.69462177 -8.1875 3.625 C-9.08855469 3.88539063 -9.98960937 4.14578125 -10.91796875 4.4140625 C-11.94857422 4.70410156 -11.94857422 4.70410156 -13 5 C-13 4.34 -13 3.68 -13 3 C-11.68 3 -10.36 3 -9 3 C-9 2.34 -9 1.68 -9 1 C-6.04335481 -0.4783226 -3.25770263 -0.06032783 0 0 Z " fill="#D7C89E" transform="translate(197,200)"/>
<path d="M0 0 C2.31 0 4.62 0 7 0 C5.25 2 5.25 2 3 4 C1.68 4 0.36 4 -1 4 C-0.67 2.68 -0.34 1.36 0 0 Z " fill="#CBAC63" transform="translate(365,163)"/>
<path d="M0 0 C0.66 1.32 1.32 2.64 2 4 C1.360625 4.103125 0.72125 4.20625 0.0625 4.3125 C-0.618125 4.539375 -1.29875 4.76625 -2 5 C-2.33 5.99 -2.66 6.98 -3 8 C-3.99 7.34 -4.98 6.68 -6 6 C-4.02 4.02 -2.04 2.04 0 0 Z " fill="#D8C090" transform="translate(73,116)"/>
<path d="M0 0 C1.14926266 0.95421808 2.29430541 1.91352045 3.4375 2.875 C4.07558594 3.40867187 4.71367188 3.94234375 5.37109375 4.4921875 C7 6 7 6 8 8 C5.69 7.34 3.38 6.68 1 6 C0.67 4.02 0.34 2.04 0 0 Z " fill="#306B99" transform="translate(802,96)"/>
<path d="M0 0 C0.33 0.99 0.66 1.98 1 3 C-1.66666667 5.66666667 -4.33333333 8.33333333 -7 11 C-6.68232368 5.59950264 -3.80003673 3.47662935 0 0 Z " fill="#326C99" transform="translate(432,65)"/>
<path d="M0 0 C0.66 0 1.32 0 2 0 C1.42365861 4.75481646 -0.55068521 7.97048212 -3 12 C-3.6875 10.25 -3.6875 10.25 -4 8 C-2.625 6 -2.625 6 -1 4 C-0.29485154 1.85266073 -0.29485154 1.85266073 0 0 Z " fill="#346A97" transform="translate(545,156)"/>
<path d="M0 0 C2.64 0 5.28 0 8 0 C8.33 0.99 8.66 1.98 9 3 C9.99 3.33 10.98 3.66 12 4 C11.67 4.99 11.34 5.98 11 7 C10.67 6.01 10.34 5.02 10 4 C7.67108904 2.97299556 7.67108904 2.97299556 4.9375 2.3125 C4.01839844 2.06113281 3.09929688 1.80976562 2.15234375 1.55078125 C1.44207031 1.36902344 0.73179687 1.18726562 0 1 C0 0.67 0 0.34 0 0 Z " fill="#326A99" transform="translate(984,67)"/>
<path d="M0 0 C1.32 0.33 2.64 0.66 4 1 C0.535 3.97 0.535 3.97 -3 7 C-2.25 2.25 -2.25 2.25 0 0 Z " fill="#2D6C99" transform="translate(812,50)"/>
<path d="M0 0 C-3.90028225 2.60018816 -7.47434569 2.15085514 -12 2 C-11.67 1.34 -11.34 0.68 -11 0 C-7.01133873 -0.99716532 -3.9676931 -1.0502717 0 0 Z " fill="#E5D49E" transform="translate(185,169)"/>
<path d="M0 0 C0.99 0.33 1.98 0.66 3 1 C1.125 4.875 1.125 4.875 0 6 C-1.66617115 6.04063832 -3.33388095 6.042721 -5 6 C-4.175 5.38125 -3.35 4.7625 -2.5 4.125 C-1.2625 3.073125 -1.2625 3.073125 0 2 C0 1.34 0 0.68 0 0 Z " fill="#EDDCA5" transform="translate(245,161)"/>
<path d="M0 0 C0.33 0.99 0.66 1.98 1 3 C-0.32 4.32 -1.64 5.64 -3 7 C-3.99 6.67 -4.98 6.34 -6 6 C-4.02 4.02 -2.04 2.04 0 0 Z " fill="#D9C293" transform="translate(145,47)"/>
<path d="M0 0 C0.99 0.66 1.98 1.32 3 2 C-1.455 4.97 -1.455 4.97 -6 8 C-4.21844267 4.43688534 -2.83236991 2.64354525 0 0 Z " fill="#EDEBDD" transform="translate(15,171)"/>
<path d="M0 0 C1.22589844 0.01353516 1.22589844 0.01353516 2.4765625 0.02734375 C3.41628906 0.04474609 3.41628906 0.04474609 4.375 0.0625 C0.73883344 2.0414756 -2.50925629 2.5876065 -6.625 3.0625 C-6.625 2.4025 -6.625 1.7425 -6.625 1.0625 C-4.21954362 -0.14022819 -2.67503047 -0.03821472 0 0 Z " fill="#ECDEB1" transform="translate(172.625,170.9375)"/>
<path d="M0 0 C0.33 1.32 0.66 2.64 1 4 C-1.375 5.5625 -1.375 5.5625 -4 7 C-4.66 6.67 -5.32 6.34 -6 6 C-4.02 4.02 -2.04 2.04 0 0 Z " fill="#DECBA2" transform="translate(80,109)"/>
<path d="M0 0 C0.66 0.33 1.32 0.66 2 1 C2 1.66 2 2.32 2 3 C1.34 3 0.68 3 0 3 C0 3.66 0 4.32 0 5 C-0.66 5 -1.32 5 -2 5 C-2.33 5.66 -2.66 6.32 -3 7 C-3.66 6.34 -4.32 5.68 -5 5 C-3.35 3.35 -1.7 1.7 0 0 Z " fill="#236DA0" transform="translate(814,41)"/>
<path d="M0 0 C-4.75 2.875 -4.75 2.875 -7 4 C-7 3.34 -7 2.68 -7 2 C-7.99 1.67 -8.98 1.34 -10 1 C-3.71428571 -1.42857143 -3.71428571 -1.42857143 0 0 Z " fill="#C8AB72" transform="translate(63,187)"/>
<path d="M0 0 C2.625 -0.1875 2.625 -0.1875 5 0 C5.33 0.66 5.66 1.32 6 2 C3.29120665 3.35439668 0.99066732 3.06501451 -2 3 C-1.34 2.01 -0.68 1.02 0 0 Z " fill="#DFC385" transform="translate(326,170)"/>
<path d="M0 0 C2.69082872 0.17635452 5.32851446 0.61835921 8 1 C8 1.33 8 1.66 8 2 C1.565 2.495 1.565 2.495 -5 3 C-3.68 2.34 -2.36 1.68 -1 1 C-0.67 0.67 -0.34 0.34 0 0 Z " fill="#DCCD9E" transform="translate(369,165)"/>
<path d="M0 0 C1.32 0.33 2.64 0.66 4 1 C3.01 2.32 2.02 3.64 1 5 C0.01 4.67 -0.98 4.34 -2 4 C-1.34 2.68 -0.68 1.36 0 0 Z " fill="#D9CB9A" transform="translate(25,162)"/>
<path d="M0 0 C0.33 0.66 0.66 1.32 1 2 C0.22265625 3.9453125 0.22265625 3.9453125 -0.9375 6.125 C-1.31777344 6.84945312 -1.69804688 7.57390625 -2.08984375 8.3203125 C-2.39019531 8.87460938 -2.69054687 9.42890625 -3 10 C-3.93423645 6.98968256 -4.04449911 6.13349732 -3 3 C-2.34 3 -1.68 3 -1 3 C-0.67 2.01 -0.34 1.02 0 0 Z " fill="#306D97" transform="translate(668,122)"/>
<path d="M0 0 C0.99 0.33 1.98 0.66 3 1 C-1.75 5.875 -1.75 5.875 -4 7 C-4 5.68 -4 4.36 -4 3 C-2.68 3 -1.36 3 0 3 C0 2.01 0 1.02 0 0 Z " fill="#D8C796" transform="translate(102,105)"/>
<path d="M0 0 C2.99324263 1.0975223 3.84610901 1.67682892 5.25 4.625 C5.4975 5.40875 5.745 6.1925 6 7 C5.01 7.495 5.01 7.495 4 8 C0 2.25 0 2.25 0 0 Z " fill="#DCD19F" transform="translate(209,105)"/>
<path d="M0 0 C2.3125 0.1875 2.3125 0.1875 5 1 C6.875 3.375 6.875 3.375 8 6 C7.67 6.99 7.34 7.98 7 9 C6.401875 8.071875 5.80375 7.14375 5.1875 6.1875 C3.54727155 3.79745282 2.1281083 1.91529747 0 0 Z " fill="#346991" transform="translate(464,68)"/>
<path d="M0 0 C1.65 0 3.3 0 5 0 C4.34 1.32 3.68 2.64 3 4 C1.68 3.67 0.36 3.34 -1 3 C-0.67 2.01 -0.34 1.02 0 0 Z " fill="#C5AE79" transform="translate(160,60)"/>
<path d="M0 0 C0 0.66 0 1.32 0 2 C-3 4 -3 4 -5.6875 3.625 C-6.450625 3.41875 -7.21375 3.2125 -8 3 C-3.5 0 -3.5 0 0 0 Z " fill="#DBCC9B" transform="translate(12,202)"/>
<path d="M0 0 C0 0.99 0 1.98 0 3 C0.3062434 4.33981486 0.63451555 5.67511887 1 7 C0.01 7.33 -0.98 7.66 -2 8 C-2 7.01 -2 6.02 -2 5 C-2.66 4.67 -3.32 4.34 -4 4 C-2.68 2.68 -1.36 1.36 0 0 Z " fill="#E3D3AC" transform="translate(34,153)"/>
<path d="M0 0 C0.99 0 1.98 0 3 0 C3 0.99 3 1.98 3 3 C3.99 3.33 4.98 3.66 6 4 C5.67 5.32 5.34 6.64 5 8 C2.525 4.04 2.525 4.04 0 0 Z " fill="#EDDBAF" transform="translate(223,128)"/>
<path d="M0 0 C0 3 0 3 -1 6 C-2.32 5.67 -3.64 5.34 -5 5 C-3.35 3.35 -1.7 1.7 0 0 Z " fill="#CCB478" transform="translate(69,122)"/>
<path d="M0 0 C0.33 0 0.66 0 1 0 C0.67 2.64 0.34 5.28 0 8 C-0.99 7.67 -1.98 7.34 -3 7 C-1.125 1.125 -1.125 1.125 0 0 Z " fill="#256DA7" transform="translate(406,119)"/>
<path d="M0 0 C1.32 0.33 2.64 0.66 4 1 C0.535 3.97 0.535 3.97 -3 7 C-1.125 2.25 -1.125 2.25 0 0 Z " fill="#306E9A" transform="translate(789,73)"/>
<path d="M0 0 C2.97 0 5.94 0 9 0 C9 0.33 9 0.66 9 1 C7.01432292 1.48828125 5.02864583 1.9765625 3.04296875 2.46484375 C1.34316798 2.91010705 -0.33301954 3.44433985 -2 4 C-1.34 2.68 -0.68 1.36 0 0 Z " fill="#336B95" transform="translate(626,67)"/>
</svg>
